<svg xmlns="http://www.w3.org/2000/svg" xmlns:xlink="http://www.w3.org/1999/xlink" width="316" height="333" viewBox="0 0 316 333">
    <defs>
        <path id="a" d="M0 .994h315.375V332H0z"/>
    </defs>
    <g fill="none" fill-rule="evenodd">
        <g transform="translate(0 .006)">
            <mask id="b" fill="#fff">
                <use xlink:href="#a"/>
            </mask>
            <path fill="#FBB040" d="M284.644 121.237c-21.333-29.09-31.03 2.586-51.718 5.172-2.755.345-7.654.858-14.05 1.487a86.856 86.856 0 0 0 9.525-39.629c0-48.2-39.073-87.274-87.274-87.274-48.2 0-87.273 39.074-87.273 87.274 0 19.835 6.627 38.116 17.774 52.773h-.01S-12.086 186.531 1.49 253.764c13.575 67.233 104.082 91.8 212.042 71.112 107.96-20.687 127.355-122.183 71.112-203.639" mask="url(#b)"/>
        </g>
        <path fill="#F15A29" d="M154.658 126.415s-49.086-56.243-58.784-54.95c-9.697 1.293-22.626 11.637-36.85 6.465-14.221-5.172-40.08-1.94-31.676 27.152 4.526 11.636 16.809 9.697 16.809 9.697s-28.445 38.788 23.919 42.667c52.364 3.88 76.46-5.76 83.395-14.869 6.933-9.108 6.64-12.258 3.187-16.162"/>
        <path fill="#FFF" d="M157.22 66.362c-2.859 10.878-11.352 18.073-18.969 16.07-7.617-2-11.474-12.442-8.615-23.319 2.858-10.877 11.35-18.072 18.967-16.07 7.617 2.002 11.474 12.443 8.616 23.32"/>
        <path fill="#231F20" d="M154.256 65.718c-1.743 6.63-6.504 11.124-10.636 10.038-4.132-1.085-6.069-7.34-4.326-13.97 1.742-6.63 6.504-11.126 10.636-10.04 4.131 1.087 6.069 7.341 4.326 13.971"/>
        <path fill="#FFF" d="M87.598 52.939c-2.542 9.67-8.006 16.616-12.205 15.513-4.198-1.104-5.542-9.838-3-19.51 2.541-9.67 8.005-16.615 12.205-15.512 4.198 1.104 5.542 9.838 3 19.509"/>
        <path fill="#231F20" d="M101.692 158.328c28.796-3.392-2.711-18.137-37.374-12.855-8.65 5.58-23.566 16.26-36.862 31.007 17.075-6.023 45.397-14.755 74.236-18.152" opacity=".15"/>
        <path fill="#231F20" d="M85.954 52.625c-1.55 5.895-4.651 10.188-6.93 9.59-2.277-.599-2.867-5.863-1.318-11.757 1.549-5.895 4.652-10.188 6.929-9.59 2.278.6 2.868 5.862 1.319 11.757"/>
        <path fill="#DD512A" d="M151.47 142.577c3.977-5.224 5.568-8.484 5.558-11.054-64.014-1.762-88.424-37.464-96.03-52.98a23.976 23.976 0 0 1-1.973-.613c-14.222-5.172-40.081-1.94-31.677 27.151 4.526 11.637 16.809 9.698 16.809 9.698s-28.445 38.788 23.919 42.667c52.364 3.88 76.46-5.76 83.395-14.869"/>
        <path fill="#AF3C25" d="M44.156 114.779s1.94-25.859 21.98-13.576c20.041 12.283 35.458 34.736 72.518 34.015 0 0-67.669 26.107-86.417-4.277-6.142-13.899-1.293-16.056-1.293-16.056l-6.788-.106z"/>
        <path fill="#231F20" d="M247.593 119.82c-4.392 3.134-9.136 5.904-14.667 6.596-2.755.344-7.654.858-14.05 1.487a86.868 86.868 0 0 0 9.525-39.63c0-23.88-9.6-45.51-25.14-61.268 10.7 29.625 24.757 86.898-11.063 118.645 0 0 39.905 20.296 55.395-25.83" opacity=".15"/>
    </g>
</svg>
