<?xml version="1.0" encoding="UTF-8"?>
<svg width="1280px" height="850px" viewBox="0 0 1280 850" version="1.1" xmlns="http://www.w3.org/2000/svg" xmlns:xlink="http://www.w3.org/1999/xlink">
    <!-- Generator: Sketch 49.1 (51147) - http://www.bohemiancoding.com/sketch -->
    <title>Mask</title>
    <desc>Created with Sketch.</desc>
    <defs>
        <path d="M1200.92409,66.6924956 C1183.16019,76.3676374 1163.8572,88.5389635 1140.58141,84.5936858 C1121.52862,81.3635374 1106.9642,71.4606136 1090.67872,63.9073166 L1103.46904,63.9073166 C1108.33648,66.3852548 1113.18118,68.9008623 1118.15477,71.1951623 C1129.67136,76.5118405 1143.35631,81.6760755 1157.17015,79.2222693 C1169.52073,77.0292057 1179.74085,71.6030509 1189.89273,65.9650059 C1191.14371,65.2716541 1192.39469,64.5847767 1193.65325,63.9073166 L1206.27676,63.9073166 C1204.47232,64.7990212 1202.69062,65.7283952 1200.92409,66.6924956 Z M440.415384,75.121627 C414.207969,79.5738962 384.533018,85.7070858 358.402929,77.6062196 C347.22782,74.1412474 337.042028,67.8948645 326.02612,63.9073166 L340.731687,63.9073166 C351.201765,68.6186727 361.635455,73.2627417 373.757427,74.6286074 C389.453826,76.3975669 405.201018,74.8210359 420.662408,72.3553089 C448.539153,67.909957 476.894257,61.4415895 505.428272,65.7052033 C536.9689,70.4178171 568.762732,83.7023069 601.184269,75.8718469 C613.214511,72.9665526 624.623113,68.3790803 636.071137,63.9073166 L653.86974,63.9073166 C641.77885,68.1904248 630.012425,73.4853552 618.152755,77.3219787 C590.349546,86.3158141 565.409669,84.6814288 537.006804,78.2111749 C520.405237,74.4292614 503.435234,70.0549698 486.044488,70.2008633 C470.600535,70.3304067 455.504548,72.5577991 440.415384,75.121627 Z M130.06231,66.7572323 C103.079833,73.1431659 78.9054862,83.4353257 50.2963705,80.0778566 L50.2963705,74.1008375 C60.4406779,75.3562987 70.6638526,75.5598195 80.9006775,73.5708094 C92.8596913,71.247176 104.368251,67.2061018 116.074738,63.9073166 L175.269961,63.9073166 C178.528546,65.1609049 181.803814,66.6086496 185.160224,68.2561693 C199.000678,75.0497689 212.288303,78.6800557 228.314292,75.058509 C240.097371,72.3958825 250.989401,68.0114449 262.086183,63.9073166 L280.544924,63.9073166 C279.5788,64.198239 278.613434,64.496653 277.651859,64.8119229 C256.688322,71.6816867 233.372416,84.878076 209.712982,82.3602863 C196.69836,80.9749714 187.004506,75.67032 175.761365,70.5373504 C160.982086,63.7887002 146.260442,62.9234246 130.06231,66.7572323 Z M1564.44118,69.0217635 C1555.84996,71.5235392 1546.59385,72.0774134 1535.85108,68.6282054 C1531.89912,67.3595381 1528.20862,65.7274474 1524.64513,63.9073166 L1539.51169,63.9073166 C1543.20965,65.0620751 1547.03461,65.7401039 1550.99405,65.6647674 C1555.13278,65.585212 1559.00256,64.9391258 1562.68558,63.9073166 L1564.44118,63.9073166 L1564.44118,69.0217635 Z M164.29709,119.62193 C149.542506,113.015548 134.84546,112.167824 118.674393,115.921769 C95.3444498,121.336325 74.1168967,129.616763 50.2963705,129.603317 L50.2963705,123.991957 C56.7133162,124.191206 63.15146,123.819601 69.5949032,122.592326 C88.9017637,118.912946 107.032134,110.832979 126.726615,108.548341 C144.670745,106.46723 158.342716,110.005424 173.680246,117.388632 C187.497574,124.040241 200.762997,127.594327 216.762208,124.048798 C229.088861,121.316767 240.438133,116.733433 252.070551,112.555931 C273.298104,104.930692 295.060907,99.4788529 317.2401,108.166346 C331.93639,113.923169 345.36534,121.731767 361.961882,123.551899 C377.636309,125.271184 393.362974,123.738924 408.803465,121.342437 C436.642532,117.021916 464.959311,110.735188 493.454759,114.879075 C524.952757,119.459352 556.702859,132.370798 589.081332,124.760226 C614.276701,118.837769 636.740554,105.725242 662.561265,101.542851 C673.62285,99.7508337 684.24609,99.7025494 694.957151,102.806797 C705.905175,105.978887 713.690907,113.010659 722.279137,118.961842 C750.524751,138.534064 779.851465,122.289786 808.966198,113.22641 C834.638523,105.235677 859.690049,106.135352 886.134588,111.186248 C913.449761,116.403389 943.414687,125.962442 971.880609,121.859506 C987.733705,119.575479 1000.25568,113.038162 1014.09497,106.870006 C1024.14132,102.39302 1035.41413,97.9649287 1047.22445,98.3725942 C1070.27731,99.1689782 1087.46285,111.612861 1106.38966,120.699462 C1117.88959,126.220366 1131.56232,131.58297 1145.35618,129.034297 C1157.68132,126.756993 1167.88665,121.123019 1178.03142,115.268404 C1196.8901,104.373895 1216.49827,94.8967415 1240.55046,99.8712386 C1265.67013,105.065765 1286.21707,119.406179 1311.30645,124.427738 C1336.92578,129.552588 1360.52373,121.464676 1382.6681,111.541351 C1401.88259,102.927813 1421.23336,92.0919783 1442.88563,87.8735265 C1464.85588,83.5945667 1483.48743,87.9535928 1501.33162,98.8358782 C1512.1729,105.445927 1525.00528,115.192005 1539.56378,114.913301 C1548.88334,114.734833 1556.87803,111.708207 1564.44118,107.863805 L1564.44118,113.962286 C1552.50215,119.567534 1539.92718,122.967598 1524.21792,117.919147 C1500.91523,110.431426 1486.20532,90.6067801 1458.61003,91.7698798 C1434.83796,92.7722358 1413.91247,103.92528 1393.78949,113.132286 C1375.20336,121.637643 1354.8684,130.932661 1333.01172,131.904458 C1308.14189,133.010105 1287.3224,122.915647 1265.88211,114.211652 C1253.45098,109.166257 1239.48299,103.676524 1225.16675,104.233932 C1211.49403,104.766281 1200.02438,109.800064 1189.03926,116.023838 C1171.30105,126.070012 1152.02599,138.709477 1128.79144,134.612041 C1105.90514,130.578169 1089.49938,116.515237 1068.79345,108.735366 C1053.652,103.045162 1038.82095,102.905199 1023.77792,109.232877 C1012.29313,114.063132 1001.55028,120.477599 989.315986,124.069579 C934.640217,140.127444 881.857129,103.084278 827.378199,114.451851 C801.944352,119.758226 775.838224,136.599028 748.573775,134.609596 C736.300118,133.713588 726.338559,129.676049 717.214322,123.050109 C706.491149,115.263515 695.72028,106.484954 680.32067,106.028394 C653.626297,105.236899 630.018508,118.616518 606.026883,126.169637 C578.261253,134.910914 553.355085,133.322425 524.99061,127.033252 C508.411482,123.357539 491.464416,119.106694 474.096418,119.248491 C458.674096,119.374397 443.598513,121.539241 428.529744,124.030462 C402.356994,128.358318 372.722152,134.31928 346.628137,126.445285 C332.236948,122.103372 319.489363,113.26247 304.487973,110.435093 C291.268732,107.943871 278.455281,110.020093 266.017339,114.017293 C245.088829,120.742246 221.811881,133.662248 198.191979,131.196696 C185.199102,129.84046 175.521446,124.647767 164.29709,119.62193 Z M153.042452,168.776209 C138.287868,162.169814 123.590821,161.322089 107.419755,165.07543 C87.8229355,169.623935 69.7092211,176.18999 50.2963705,178.169036 L50.2963705,172.849816 C52.9756498,172.614506 55.6572002,172.257569 58.3402648,171.746 C77.6471253,168.067224 95.7774952,159.987241 115.471977,157.702599 C133.416107,155.621484 147.088077,159.159685 162.425607,166.542906 C176.242936,173.194529 189.508358,176.74801 205.50757,173.202475 C217.834223,170.471049 229.183495,165.887707 240.815912,161.709586 C262.043466,154.084942 283.806269,148.633093 305.985462,157.320602 C320.681752,163.077437 334.110702,170.88605 350.706486,172.706185 C366.38167,174.424862 382.108335,172.893211 397.548827,170.49672 C425.387894,166.175579 453.704673,159.88945 482.200121,164.032733 C513.698118,168.61302 545.448221,181.52449 577.825936,173.913904 C603.022063,167.992047 625.485915,154.879494 651.306627,150.696484 C662.368212,148.905074 672.991452,148.85679 683.702512,151.960432 C694.650536,155.13314 702.436269,162.164925 711.024498,168.116119 C739.270113,187.68838 768.596826,171.44407 797.713074,162.380065 C823.380857,154.389928 848.432383,155.289605 874.876922,160.340511 C902.192094,165.557662 932.15702,175.116734 960.630513,171.013789 C976.476038,168.729758 988.998016,162.192429 1002.8373,156.02426 C1012.88365,151.547265 1024.15646,147.119166 1035.96679,147.526832 C1059.01964,148.322607 1076.20519,160.766513 1095.132,169.853132 C1106.63193,175.374658 1120.30465,180.736661 1134.09851,178.188594 C1146.43122,175.911286 1156.63656,170.277301 1166.77376,164.422064 C1185.64,153.527533 1205.24061,144.050973 1229.2928,149.02548 C1254.41246,154.220016 1274.9594,168.560457 1300.05636,173.581415 C1325.66811,178.706886 1349.27363,170.618958 1371.41043,160.695615 C1390.6325,152.08206 1409.9757,141.245593 1431.62797,137.027744 C1453.59821,132.748776 1472.22976,137.107199 1490.08153,147.990117 C1500.92281,154.600179 1513.75518,164.345665 1528.30611,164.067571 C1541.69115,163.811481 1552.33559,157.691597 1562.88918,151.702509 C1563.41156,151.408524 1563.92637,151.120041 1564.44118,150.834002 L1564.44118,157.312657 C1548.91363,165.712905 1533.65862,173.723823 1512.96026,167.072812 C1489.65757,159.585076 1474.95522,139.760392 1447.35993,140.924105 C1423.58786,141.926463 1402.65481,153.078917 1382.53182,162.286553 C1363.9457,170.791926 1343.6183,180.086962 1321.76162,181.05876 C1296.89179,182.16441 1276.06473,172.069321 1254.62444,163.36531 C1242.20088,158.319904 1228.22533,152.830772 1213.90909,153.388181 C1200.24393,153.91992 1188.77428,158.954324 1177.78159,165.177499 C1160.05096,175.224304 1140.77589,187.863182 1117.53377,183.766349 C1094.64747,179.731859 1078.24928,165.66951 1057.54335,157.889624 C1042.4019,152.199409 1027.57086,152.058835 1012.52026,158.387136 C1001.04304,163.217401 990.29261,169.63188 978.065891,173.223866 C923.382551,189.281762 870.599463,152.237914 816.120532,163.60612 C790.689713,168.912505 764.583586,185.75334 737.319137,183.763904 C725.045479,182.867894 715.08392,178.829736 705.959684,172.204395 C695.23651,164.417785 684.465641,155.638597 669.065274,155.182035 C642.371658,154.39115 618.76387,167.770795 594.772245,175.323929 C567.006615,184.065223 542.100447,182.47673 513.735972,176.187545 C497.156843,172.511826 480.209778,168.260361 462.84178,168.402158 C447.419458,168.528675 432.343875,170.692913 417.275106,173.18475 C391.102356,177.512614 361.467513,183.473587 335.373499,175.599577 C320.982309,171.257045 308.234724,162.416126 293.233335,159.589354 C280.014093,157.097517 267.200643,159.174353 254.7627,163.171561 C233.834191,169.896527 210.557243,182.816554 186.937341,180.350998 C173.943707,178.994759 164.266807,173.802056 153.042452,168.776209 Z M141.787814,217.930337 C127.032472,211.323333 112.336183,210.476219 96.1651163,214.229559 C80.3983264,217.888776 65.5915043,222.855948 50.2963705,225.689442 L50.2963705,220.242483 C68.4138702,216.335733 85.6183406,209.014243 104.216581,206.85673 C122.161469,204.775004 135.833439,208.313815 151.170969,215.697036 C164.988297,222.348046 178.25372,225.902137 194.252174,222.356602 C206.579584,219.625178 217.928857,215.041836 229.561274,210.863716 C250.788827,203.239074 272.551631,197.787226 294.730824,206.474733 C309.427113,212.230956 322.856064,220.040178 339.451848,221.860313 C355.127032,223.57899 370.853697,222.047338 386.294189,219.650848 C414.133255,215.329708 442.450034,209.04297 470.945483,213.186863 C502.44348,217.767149 534.193582,230.678616 566.571298,223.068032 C591.767425,217.145565 614.231277,204.033626 640.051989,199.850616 C651.113573,198.058596 661.736813,198.010312 672.447874,201.114565 C683.395898,204.287271 691.181631,211.319055 699.76986,217.269637 C728.015474,236.842505 757.342188,220.597587 786.457679,211.534195 C812.12319,203.54406 837.174716,204.443126 863.626826,209.494642 C890.941998,214.71118 920.899353,224.27025 949.372846,220.167306 C965.218372,217.883276 977.74792,211.346559 991.587204,205.17778 C1001.62598,200.700786 1012.90636,196.272688 1024.70912,196.680965 C1047.76198,197.476739 1064.95509,209.920644 1083.8819,219.007261 C1095.38183,224.528174 1109.04699,229.890787 1122.84842,227.342721 C1135.17356,225.065413 1145.37889,219.430818 1155.51609,213.576193 C1174.38234,202.681665 1193.98294,193.205107 1218.0427,198.179612 C1243.16236,203.373537 1263.70931,217.714586 1288.79869,222.735542 C1314.41802,227.861013 1338.01597,219.773087 1360.16033,209.849745 C1379.37483,201.235581 1398.7256,190.399727 1420.37787,186.181879 C1442.34054,181.902912 1460.97209,186.261335 1478.82386,197.143639 C1489.66514,203.753699 1502.49752,213.499794 1517.04845,213.221701 C1530.43349,212.965611 1541.07793,206.845728 1551.63909,200.85603 C1555.93926,198.414922 1560.18643,196.232349 1564.44118,194.371264 L1564.44118,200.57488 C1544.63617,210.203626 1527.34463,224.466443 1501.70259,216.226941 C1478.3999,208.739206 1463.69756,188.914527 1436.10227,190.078239 C1412.33019,191.080597 1391.40471,202.233049 1371.28173,211.440071 C1352.68803,219.946054 1332.36063,229.241088 1310.50395,230.212887 C1285.63413,231.318536 1264.81463,221.223449 1243.37434,212.519439 C1230.94322,207.474035 1216.96766,201.984904 1202.65899,202.541702 C1188.98626,203.074052 1177.51662,208.108454 1166.5315,214.331629 C1148.79329,224.378431 1129.51823,237.017306 1106.28367,232.920475 C1083.39737,228.885985 1066.99162,214.823029 1046.28568,207.043755 C1031.14424,201.353541 1016.31319,201.212967 1001.27016,207.541267 C989.785371,212.370919 979.042514,218.785397 966.808224,222.377383 C912.124884,238.435276 859.341796,201.392046 804.865894,212.759639 C779.435075,218.066634 753.328947,234.907465 726.064499,232.917419 C713.790841,232.02202 703.829282,227.983863 694.705045,221.358523 C683.981872,213.571304 673.211003,204.792728 657.810636,204.336167 C631.11702,203.544671 607.509231,216.924313 583.517607,224.477445 C555.751976,233.218737 530.845808,231.630245 502.481334,225.341673 C485.902205,221.665953 468.955139,217.41449 451.587141,217.556287 C436.164819,217.682193 421.089236,219.847041 406.020467,222.338878 C379.847717,226.666129 350.212875,232.627102 324.11886,224.753704 C309.727671,220.411173 296.980086,211.570256 281.978696,208.742873 C268.759455,206.251648 255.946004,208.327873 243.508062,212.32508 C222.579552,219.050656 199.302604,231.970068 175.682702,229.505124 C162.689069,228.148885 153.012169,222.956183 141.787814,217.930337 Z M130.533175,267.083871 C115.777834,260.477474 101.081545,259.630359 84.9104779,263.383702 C73.0335261,266.140187 61.7024234,269.637439 50.2963705,272.407982 L50.2963705,266.582691 C64.4074431,262.658214 78.2482408,257.717321 92.961943,256.010868 C110.906073,253.929141 124.578044,257.467343 139.916331,264.850567 C153.733659,271.502192 166.999082,275.056286 182.997536,271.510749 C195.324946,268.778712 206.674218,264.195979 218.306636,260.017856 C239.534189,252.392599 261.296992,246.940748 283.476185,255.62826 C298.172475,261.385097 311.600668,269.193712 328.197209,271.013848 C343.872394,272.733137 359.598302,271.200874 375.03955,268.804382 C402.878617,264.483851 431.195396,258.197109 459.690844,262.341005 C491.188842,266.921293 522.938944,279.832768 555.31666,272.222179 C580.512029,266.299709 602.976639,253.187151 628.79735,249.00475 C639.858935,247.212729 650.482175,247.164445 661.193235,250.268699 C672.140502,253.440797 679.926992,260.472584 688.515221,266.423781 C716.760836,285.996049 746.08755,269.751733 775.20304,260.688336 C800.87158,252.698196 825.92462,253.597262 852.369159,258.64817 C879.684332,263.865323 909.649257,273.424398 938.11518,269.321452 C953.968276,267.03742 966.490253,260.500088 980.329537,254.331917 C990.375888,249.854921 1001.6487,245.42682 1013.45903,245.834486 C1036.51188,246.630872 1053.69742,259.074783 1072.62423,268.161406 C1084.12416,273.682322 1097.79689,279.044939 1111.59075,276.49687 C1123.91589,274.219561 1134.1288,268.584963 1144.266,262.730335 C1163.13224,251.835801 1182.73284,242.358626 1206.78503,247.333134 C1231.9047,252.527673 1252.45164,266.868119 1277.54859,271.88969 C1303.16035,277.015163 1326.7583,268.926621 1348.90267,259.003274 C1368.12473,250.389716 1387.46793,239.553856 1409.12021,235.336006 C1431.09045,231.057036 1449.722,235.415461 1467.5662,246.297771 C1478.41504,252.907835 1491.23985,262.653936 1505.79835,262.375231 C1519.18339,262.119752 1529.82783,255.999866 1540.38142,250.010164 C1548.44424,245.432932 1556.31022,241.764545 1564.44118,239.433451 L1564.44118,245.053991 C1539.46536,253.346061 1520.8111,275.136352 1490.45249,265.381084 C1467.14981,257.893345 1452.44746,238.068654 1424.85217,239.232368 C1401.07253,240.234726 1380.14704,251.387184 1360.02406,260.594212 C1341.43793,269.099589 1321.11054,278.394628 1299.24629,279.366427 C1274.38403,280.472077 1253.55697,270.377595 1232.11668,261.673581 C1219.68555,256.628174 1205.71756,251.138428 1191.40132,251.695837 C1177.73617,252.228187 1166.25895,257.261982 1155.27383,263.485771 C1137.53562,273.531968 1118.26813,286.171461 1095.02601,282.074628 C1072.13971,278.040135 1055.73395,263.977171 1035.03559,256.197893 C1019.88657,250.507676 1005.05552,250.367102 990.012493,256.694794 C978.535275,261.52506 967.784847,267.939542 955.550557,271.53153 C900.874788,287.589432 848.0917,250.546181 793.611256,261.91378 C768.180437,267.220167 742.074309,284.061008 714.80986,282.071572 C702.536202,281.176172 692.574644,277.138013 683.450407,270.512058 C672.727234,262.725446 661.956364,253.946865 646.555998,253.490303 C619.862382,252.698807 596.254593,266.078456 572.262968,273.631593 C544.497338,282.37289 519.59117,280.784397 491.226695,274.49521 C474.647567,270.819489 457.700501,266.568634 440.332503,266.710431 C424.910181,266.836337 409.834598,269.001186 394.765829,271.492413 C368.593079,275.820279 338.958237,281.781254 312.864222,273.907852 C298.473033,269.565318 285.725447,260.724396 270.724058,257.897012 C257.504817,255.405785 244.691366,257.482012 232.253424,261.479221 C211.324914,268.2048 188.047966,281.124221 164.428064,278.658664 C151.43443,277.303035 141.757531,272.109719 130.533175,267.083871 Z M119.278537,316.238584 C104.523196,309.63219 89.8269061,308.784464 73.6550825,312.537805 C65.6861384,314.387889 57.9624857,316.571685 50.2963705,318.646076 L50.2963705,312.462628 C60.5978547,309.408493 70.9175087,306.416699 81.7073046,305.164974 C99.6514347,303.083859 113.323405,306.62206 128.661692,314.005282 C142.479021,320.656904 155.744443,324.210996 171.742897,320.665461 C184.070307,317.933424 195.41958,313.350082 207.051997,309.171961 C228.27955,301.547318 250.042354,296.095469 272.221547,304.782978 C286.917837,310.539813 300.34603,318.348425 316.942571,320.16856 C332.617755,321.887848 348.343663,320.355586 363.784912,317.959095 C391.623978,313.638565 419.940758,307.351826 448.436206,311.495109 C479.933446,316.075395 511.684306,328.986865 544.062021,321.37689 C569.257391,315.454422 591.722,302.34187 617.542712,298.15947 C628.604297,296.36745 639.227537,296.319166 649.938597,299.422808 C660.885864,302.595515 668.672354,309.6273 677.260583,315.578495 C705.506197,335.150755 734.832911,318.906445 763.948402,309.843052 C789.616942,301.852303 814.666953,302.751981 841.111492,307.802887 C868.426665,313.020037 898.391591,322.579109 926.865084,318.476164 C942.710609,316.192133 955.232587,309.654804 969.07187,303.486636 C979.118221,299.009641 990.391029,294.581542 1002.20136,294.989208 C1025.25421,295.784982 1042.44733,308.228889 1061.37414,317.315507 C1072.87407,322.837032 1086.53922,328.199036 1100.33308,325.650969 C1112.66579,323.373661 1122.87113,317.739676 1133.00833,311.884439 C1151.87457,300.99052 1171.47518,291.513349 1195.53494,296.487855 C1220.64703,301.682392 1241.19398,316.022832 1266.29093,321.044401 C1291.90269,326.169261 1315.5082,318.081333 1337.645,308.15799 C1356.86707,299.544436 1376.21027,288.70858 1397.87011,284.49012 C1419.83278,280.211152 1438.46433,284.569575 1456.3161,295.452493 C1467.15738,302.062554 1479.98975,311.808651 1494.54069,311.529947 C1507.92573,311.273856 1518.57016,305.154584 1529.12375,299.164884 C1540.84323,292.514484 1552.13875,287.777732 1564.44118,286.287641 L1564.44118,291.598305 C1533.34822,295.558841 1513.93688,325.698031 1479.19483,314.535798 C1455.89214,307.048062 1441.18979,287.223379 1413.5945,288.386481 C1389.82243,289.388839 1368.89695,300.541293 1348.77396,309.748928 C1330.18027,318.254301 1309.85287,327.549337 1287.99619,328.521135 C1263.12636,329.626785 1242.30687,319.531696 1220.85901,310.828296 C1208.43545,305.78228 1194.4599,300.293148 1180.14366,300.850557 C1166.4785,301.382295 1155.00885,306.416699 1144.02373,312.640486 C1126.28553,322.686679 1107.01046,335.325556 1083.76834,331.228724 C1060.88961,327.194845 1044.48385,313.131886 1023.77792,305.351999 C1008.63647,299.661785 993.805426,299.52121 978.762397,305.849511 C967.277609,310.679776 956.527181,317.094255 944.300461,320.686241 C889.617121,336.744137 836.834033,299.70029 782.356617,311.068495 C756.925798,316.37488 730.81967,333.215715 703.554465,331.226279 C691.281564,330.330269 681.320005,326.292111 672.195769,319.66677 C661.472595,311.880161 650.701726,303.101584 635.301359,302.645022 C608.607743,301.853526 584.999954,315.23317 561.00833,322.786303 C533.2427,331.527598 508.336532,329.939105 479.9713,323.64992 C463.392928,319.974201 446.445862,315.723347 429.077864,315.865144 C413.655542,315.99105 398.57996,318.155288 383.511191,320.647125 C357.33844,324.974989 327.703598,330.935962 301.609584,323.061952 C287.218394,318.71942 274.470809,309.879112 259.469419,307.051729 C246.250178,304.559892 233.436728,306.636729 220.998028,310.633936 C200.070276,317.358902 176.793327,330.278929 153.173425,327.813373 C140.179792,326.457134 130.502892,321.264431 119.278537,316.238584 Z M108.023898,366.286425 C93.2685573,359.679421 78.5722678,358.832306 62.4004441,362.585647 C58.3092249,363.535442 54.2838709,364.57386 50.2963705,365.639782 L50.2963705,359.293757 C56.9033414,357.518851 63.5814771,356.009814 70.4526662,355.212817 C88.3967964,353.131091 102.068767,356.669903 117.406297,364.053123 C131.224382,370.704133 144.489048,374.258225 160.488259,370.71269 C172.815669,367.981265 184.164941,363.397923 195.797359,359.219803 C217.024912,351.595161 238.787715,346.143313 260.966909,354.830821 C275.663198,360.587043 289.091391,368.396266 305.687933,370.2164 C321.363117,371.935077 337.089025,370.403426 352.530274,368.006935 C380.36934,363.685796 408.685362,357.399057 437.181567,361.54295 C468.678808,366.123236 500.429667,379.034704 532.807383,371.424119 C558.002753,365.501652 580.467362,352.389713 606.288073,348.206703 C617.349658,346.415294 627.972898,346.366399 638.683959,349.470652 C649.631226,352.643359 657.416958,359.675142 666.005188,365.625724 C694.251559,385.198592 723.578273,368.953674 752.693763,359.890283 C778.362303,351.900147 803.413829,352.799824 829.861397,357.850729 C857.176569,363.067879 887.141495,372.626949 915.607417,368.524005 C931.460513,366.239363 943.982491,359.702646 957.821774,353.533868 C967.860555,349.056874 979.140933,344.628775 990.951263,345.037053 C1013.99655,345.832827 1031.18966,358.276731 1050.11647,367.363348 C1061.6164,372.884261 1075.28913,378.246875 1089.08299,375.698808 C1101.40813,373.4215 1111.61346,367.787517 1121.75066,361.932281 C1140.61691,351.037753 1160.22508,341.561194 1184.27727,346.5357 C1209.39693,351.729624 1229.94388,366.070673 1255.03326,371.09163 C1280.65259,376.2171 1304.25054,368.129174 1326.3949,358.205833 C1345.6094,349.592279 1364.96017,338.755815 1386.61244,334.537967 C1408.58268,330.259 1427.21424,334.617422 1445.05843,345.499726 C1455.89971,352.110398 1468.73209,361.855882 1483.29059,361.577788 C1496.67563,361.321698 1507.3125,355.201815 1517.87366,349.212117 C1533.0681,340.588785 1547.54332,335.174831 1564.44118,335.897262 L1564.44118,341.325273 C1561.77629,341.164529 1559.08111,341.155361 1556.35565,341.337497 C1523.37757,343.538406 1503.84511,376.119921 1467.94473,364.583028 C1444.64204,357.095294 1429.93213,337.270614 1402.33684,338.434327 C1378.56476,339.436685 1357.63928,350.589136 1337.5163,359.79677 C1318.93017,368.302142 1298.59521,377.597176 1276.73852,378.568974 C1251.8687,379.674623 1231.04921,369.579537 1209.60891,360.875527 C1197.17779,355.830123 1183.20223,350.340992 1168.89356,350.8984 C1155.22083,351.430139 1143.75119,356.464542 1132.76607,362.687716 C1115.02786,372.734519 1095.7528,385.373394 1072.51824,381.276562 C1049.63194,377.242072 1033.22619,363.179116 1012.52026,355.399842 C997.378808,349.709629 982.547759,349.569054 967.50473,355.897354 C956.019942,360.727007 945.277085,367.141485 933.042795,370.73347 C878.367026,386.791974 825.583937,349.748134 771.101979,361.116337 C745.67116,366.422721 719.564275,383.263553 692.299826,381.273506 C680.026926,380.378107 670.065367,376.33995 660.94113,369.71461 C650.217957,361.927391 639.446331,353.148816 624.046721,352.692254 C597.353105,351.900758 573.745316,365.2804 549.753692,372.833532 C521.988061,381.575436 497.081893,379.986332 468.716661,373.69776 C452.13829,370.022041 435.191224,365.770577 417.823226,365.912374 C402.400904,366.03828 387.325321,368.203128 372.256552,370.694965 C346.083802,375.022217 316.44896,380.9838 290.354945,373.109792 C275.963756,368.76726 263.216171,359.926343 248.214781,357.099572 C234.994783,354.607735 222.182089,356.68396 209.74339,360.681167 C188.815637,367.406743 165.538689,380.326156 141.918787,377.861212 C128.925153,376.504973 119.248254,371.312271 108.023898,366.286425 Z M96.7692601,414.546839 C82.0139189,407.939835 67.3176294,407.09272 51.1458058,410.846061 C50.8619036,410.91207 50.5802727,410.980523 50.2963705,411.047755 L50.2963705,404.897312 C53.2345685,404.316067 56.1969928,403.821 59.1980279,403.473231 C77.142158,401.391505 90.8141286,404.930317 106.151658,412.312926 C119.969744,418.964547 133.23441,422.518639 149.233621,418.973104 C161.561031,416.241068 172.910303,411.658337 184.541963,407.480217 C205.770274,399.855575 227.533077,394.403727 249.71227,403.091235 C264.40856,408.847457 277.836753,416.65668 294.433294,418.476203 C310.108478,420.195491 325.834386,418.663229 341.275635,416.266738 C369.114702,411.94621 397.430724,405.659471 425.926929,409.803364 C457.424169,414.38365 489.175029,427.295117 521.552745,419.684533 C546.748114,413.762066 569.211967,400.650127 595.033435,396.467117 C606.09502,394.675097 616.71826,394.626813 627.42932,397.731066 C638.376587,400.903161 646.16232,407.934945 654.750549,413.886138 C682.996921,433.458395 712.322877,417.214088 741.439125,408.150696 C767.107665,400.160561 792.159191,401.059627 818.60373,406.110532 C845.918902,411.327681 875.883828,420.886751 904.357321,416.783808 C920.202847,414.499777 932.724824,407.962449 946.564108,401.794282 C956.610459,397.317288 967.883267,392.889189 979.693596,393.296855 C1002.74645,394.093241 1019.93199,406.537145 1038.8588,415.623762 C1050.35873,421.144675 1064.03146,426.507289 1077.82532,423.959222 C1090.15803,421.681914 1100.36337,416.047319 1110.50057,410.192695 C1129.36681,399.298167 1148.96742,389.820997 1173.01961,394.795502 C1198.13927,399.990038 1218.68621,414.330476 1243.78316,419.352044 C1269.39492,424.477514 1293.00044,416.389588 1315.13724,406.465635 C1334.35931,397.852082 1353.70251,387.016229 1375.35478,382.798381 C1397.32502,378.519414 1415.95657,382.877836 1433.80834,393.76014 C1444.64961,400.3702 1457.47442,410.116296 1472.03292,409.838202 C1485.41796,409.582112 1496.0624,403.462229 1506.61599,397.472531 C1525.08099,386.997282 1542.47851,381.264896 1564.44118,385.507803 L1564.44118,391.121006 C1558.14234,389.824053 1551.72993,389.155407 1545.09798,389.5973 C1512.11991,391.798208 1492.58744,424.379723 1456.68706,412.843442 C1433.38438,405.355708 1418.68203,385.531028 1391.08674,386.694741 C1367.31467,387.697099 1346.38162,398.84955 1326.25863,408.056573 C1307.6725,416.561945 1287.34511,425.85759 1265.48843,426.828777 C1240.6186,427.934426 1219.79154,417.839951 1198.35125,409.135941 C1185.92769,404.090537 1171.95213,398.601406 1157.63589,399.158203 C1143.97074,399.690553 1132.50109,404.724344 1121.5084,410.94813 C1103.77776,420.994933 1084.5027,433.633808 1061.26058,429.536976 C1038.37428,425.502486 1021.97609,411.43953 1001.27016,403.660256 C986.128712,397.970043 971.297663,397.829468 956.247064,404.157768 C944.769846,408.987421 934.019418,415.401899 921.785128,418.993884 C867.109359,435.051777 814.326271,398.008548 759.847341,409.37614 C734.416521,414.683135 708.309637,431.523356 681.045188,429.53392 C668.772287,428.638521 658.810729,424.600364 649.686492,417.975024 C638.963318,410.187805 628.191692,401.40923 612.792082,400.952668 C586.098467,400.161172 562.490678,413.540814 538.499053,421.093946 C510.732666,429.835239 485.827255,428.246746 457.462023,421.958174 C440.883652,418.281844 423.936586,414.030991 406.568588,414.172788 C391.145509,414.298694 376.069926,416.463542 361.001914,418.954768 C334.829164,423.282631 305.194321,429.243603 279.100307,421.370206 C264.709118,417.027674 251.961532,408.186757 236.960143,405.359375 C223.740144,402.868149 210.927451,404.944374 198.488751,408.941581 C177.560999,415.667157 154.284051,428.58657 130.664149,426.121626 C117.670515,424.765387 107.993616,419.572074 96.7692601,414.546839 Z M85.5146217,463.70096 C73.984409,458.538206 62.4867504,456.906929 50.2963705,458.225274 L50.2963705,452.39693 C67.093536,450.881169 80.2400983,454.412036 94.89702,461.467658 C108.715106,468.11928 121.979771,471.673372 137.978982,468.127837 C150.306392,465.3958 161.654908,460.812458 173.287325,456.634337 C194.515635,449.009694 216.278439,443.557845 238.457632,452.245354 C253.153921,458.002189 266.582115,465.810801 283.178656,467.630936 C298.85384,469.350225 314.579748,467.817962 330.020997,465.421471 C357.860063,461.100941 386.176085,454.814202 414.672291,458.958096 C446.169531,463.538382 477.920391,476.449852 510.298106,468.839266 C535.493476,462.916798 557.957328,449.804246 583.77804,445.621846 C594.840382,443.829826 605.463622,443.781542 616.174682,446.885184 C627.121949,450.057891 634.907682,457.089676 643.495911,463.040871 C671.742282,482.613131 701.068239,466.368821 730.184487,457.305428 C755.853027,449.314679 780.903795,450.214357 807.349849,455.265263 C834.668806,460.482413 864.626161,470.041485 893.099655,465.938541 C908.94518,463.654509 921.474728,457.11718 935.314012,450.949012 C945.352792,446.472017 956.633171,442.043918 968.43593,442.451584 C991.488784,443.247969 1008.6819,455.691265 1027.60871,464.778495 C1039.10864,470.299409 1052.7738,475.662023 1066.57523,473.113345 C1078.90036,470.836037 1089.1057,465.202052 1099.2429,459.346815 C1118.10914,448.452896 1137.70975,438.975725 1161.76951,443.950231 C1186.88917,449.144768 1207.42855,463.485208 1232.5255,468.506777 C1258.14483,473.631637 1281.74277,465.543709 1303.88714,455.620366 C1323.10164,447.006812 1342.45241,436.170956 1364.10468,431.952496 C1386.06735,427.673528 1404.6989,432.031951 1422.55067,442.914869 C1433.39195,449.52493 1446.22432,459.271027 1460.77526,458.992323 C1474.1603,458.736232 1484.80473,452.61696 1495.35832,446.62726 C1514.83023,435.582376 1533.10595,429.801705 1556.80989,435.436301 C1559.27795,436.02427 1561.82928,436.747923 1564.44118,437.553477 L1564.44118,443.194796 C1554.53867,440.18161 1544.46204,438.043654 1533.84031,438.752028 C1500.86224,440.952937 1481.33734,473.534457 1445.4294,461.998174 C1422.12671,454.510438 1407.42436,434.685755 1379.82907,435.848857 C1356.057,436.851215 1335.13152,448.00428 1315.00854,457.211304 C1296.41484,465.716677 1276.08744,475.011713 1254.23076,475.983511 C1229.36093,477.089161 1208.54144,466.994683 1187.10115,458.290672 C1174.67002,453.245267 1160.69447,447.755524 1146.37823,448.312933 C1132.71307,448.845283 1121.24342,453.879075 1110.2583,460.102862 C1092.5201,470.149055 1073.24503,482.787932 1050.00291,478.6911 C1027.12418,474.657221 1010.71842,460.594262 990.012493,452.814375 C974.871045,447.124161 960.039997,446.984197 944.996968,453.311887 C933.51218,458.142152 922.769322,464.556631 910.535032,468.148617 C855.851692,484.206513 803.070875,447.163277 748.592702,458.530871 C723.161883,463.837256 697.054998,480.678091 669.79055,478.688655 C657.517649,477.792645 647.55609,473.755098 638.431854,467.129146 C627.70868,459.342537 616.937054,450.56396 601.537444,450.107398 C574.843071,449.315902 551.235282,462.695546 527.244415,470.248679 C499.478027,478.989974 474.572616,477.401481 446.207385,471.112296 C429.629013,467.436577 412.681947,463.185724 395.313949,463.32752 C379.89087,463.453426 364.815287,465.617664 349.747275,468.109501 C323.574525,472.437365 293.939683,478.398338 267.845668,470.524328 C253.453722,466.182407 240.706894,457.341488 225.705504,454.514105 C212.485506,452.022879 199.672813,454.099105 187.234113,458.096312 C166.30636,464.821278 143.029412,477.741305 119.408753,475.275749 C106.415877,473.91951 96.7389772,468.726807 85.5146217,463.70096 Z M108.154115,524.429875 C95.1612383,523.073636 85.4843388,517.880933 74.2599833,512.855086 C66.3349494,509.306495 58.4250569,507.434408 50.2963705,507.029186 L50.2963705,501.296799 C62.0703606,501.883545 72.4134838,505.216385 83.6423817,510.621784 C97.4604672,517.273407 110.725133,520.826888 126.724344,517.281352 C139.051754,514.549927 150.400269,509.966584 162.032687,505.788463 C183.260997,498.16382 205.0238,492.71197 227.202994,501.39948 C241.899283,507.155704 255.327476,514.964927 271.924018,516.785063 C287.599202,518.50374 303.32511,516.972088 318.766358,514.575597 C346.605425,510.254456 374.921447,503.967716 403.417652,508.111611 C434.914893,512.691897 466.665752,525.603368 499.043468,517.992782 C524.238837,512.070925 546.70269,498.958372 572.523401,494.775361 C583.584986,492.983952 594.208983,492.935667 604.920044,496.03931 C615.867311,499.212017 623.653043,506.243802 632.241273,512.194997 C660.487644,531.767258 689.813601,515.522947 718.929848,506.458943 C744.598388,498.468805 769.649157,499.368483 796.09521,504.419389 C823.41114,509.636539 853.376065,519.195611 881.841988,515.092667 C897.695084,512.808635 910.217062,506.271306 924.056345,500.102527 C934.102696,495.626143 945.375504,491.198043 957.185834,491.60571 C980.238688,492.401484 997.424232,504.845391 1016.35104,513.93201 C1027.85097,519.453535 1041.5237,524.815539 1055.31756,522.267472 C1067.6427,519.990163 1077.84803,514.356178 1087.9928,508.500941 C1106.85905,497.606411 1126.45965,488.12985 1150.51184,493.104357 C1175.63151,498.298893 1196.17845,512.639335 1221.2754,517.660292 C1246.88716,522.785764 1270.48511,514.697836 1292.62947,504.774492 C1311.85154,496.160937 1331.19474,485.32447 1352.84701,481.106622 C1374.81726,476.827654 1393.44881,481.186077 1411.293,492.068995 C1422.14185,498.679056 1434.96666,508.424542 1449.52516,508.146449 C1462.9102,507.890359 1473.55464,501.770475 1484.10823,495.781386 C1503.57256,484.736502 1521.84829,478.95583 1545.55222,484.590427 C1551.4801,485.999228 1557.84708,488.169578 1564.44118,490.445664 L1564.44118,496.061313 C1550.87444,491.373456 1537.24714,486.927632 1522.59022,487.906153 C1489.61214,490.107062 1470.07968,522.688584 1434.1793,511.151689 C1410.87661,503.663953 1396.17427,483.839269 1368.57141,485.002982 C1344.79933,486.00534 1323.87385,497.157795 1303.75087,506.36543 C1285.16474,514.870804 1264.83735,524.16584 1242.9731,525.137638 C1218.11084,526.243288 1197.28378,516.148199 1175.84349,507.444187 C1163.41236,502.398782 1149.44437,496.90965 1135.12813,497.467059 C1121.46297,497.998797 1109.98576,503.033201 1099.00064,509.256377 C1081.26243,519.303181 1061.98737,531.942059 1038.75281,527.845227 C1015.86652,523.810736 999.460757,509.748388 978.762397,501.968501 C963.613378,496.278287 948.78233,496.137712 933.739301,502.466013 C922.262084,507.296278 911.511655,513.710758 899.277365,517.302744 C844.601596,533.36064 791.816237,496.316792 737.337307,507.684997 C711.907245,512.991382 685.80036,529.832218 658.535911,527.842171 C646.263011,526.946772 636.301452,522.908614 627.177215,516.283273 C616.454042,508.496663 605.682416,499.717474 590.282806,499.260913 C563.588433,498.470028 539.980644,511.849061 515.989019,519.402806 C488.223389,528.1441 463.317978,526.555608 434.952746,520.266423 C418.373618,516.590703 401.427309,512.339239 384.059311,512.481036 C368.636232,512.606942 353.560649,514.77179 338.492637,517.263627 C312.319887,521.591491 282.685045,527.552465 256.59103,519.678454 C242.199084,515.335922 229.452256,506.495003 214.450866,503.668231 C201.230868,501.176394 188.418174,503.253231 175.979475,507.249827 C155.051722,513.975405 131.774017,526.895431 108.154115,524.429875 Z M96.8994765,573.584002 C83.9065999,572.227763 74.2289434,567.03445 63.005345,562.009215 C58.7763385,560.115737 54.5511174,558.710602 50.2963705,557.73636 L50.2963705,551.898237 C57.7262791,553.459226 64.8571441,556.150312 72.3877433,559.775913 C86.2058288,566.426923 99.4704944,569.981015 115.469706,566.43548 C127.797116,563.704055 139.145631,559.120713 150.778048,554.942593 C172.006359,547.317951 193.769162,541.866103 215.947598,550.553611 C230.644645,556.309833 244.072838,564.119056 260.669379,565.93919 C276.344563,567.657867 292.070471,566.125605 307.51172,563.729114 C335.350787,559.408586 363.666809,553.121847 392.163014,557.26574 C423.660254,561.846026 455.411114,574.757494 487.788829,567.146909 C512.984199,561.224442 535.448051,548.112503 561.268763,543.929493 C572.330348,542.137473 582.954345,542.089189 593.665405,545.193442 C604.612672,548.366149 612.398405,555.397932 620.986634,561.348514 C649.233006,580.921382 678.558962,564.676464 707.67521,555.613073 C733.34375,547.622937 758.394519,548.522003 784.840572,553.573519 C812.153473,558.790058 842.118399,568.349127 870.591892,564.246184 C886.437417,561.962153 898.959395,555.425436 912.798679,549.256658 C922.845029,544.779664 934.117837,540.351565 945.928167,540.759231 C968.981022,541.555617 986.166565,553.999521 1005.10095,563.086138 C1016.60088,568.607051 1030.26603,573.969665 1044.05989,571.421598 C1056.3926,569.14429 1066.59794,563.509695 1076.73514,557.655071 C1095.60138,546.760543 1115.20199,537.283984 1139.26175,542.25849 C1164.37384,547.452414 1184.92078,561.793463 1210.01773,566.81442 C1235.62949,571.93989 1259.23501,563.851964 1281.37181,553.928623 C1300.59388,545.314458 1319.93708,534.478605 1341.59692,530.260757 C1363.55959,525.98179 1382.19114,530.340212 1400.04291,541.222516 C1410.88418,547.832576 1423.71656,557.578672 1438.26749,557.300578 C1451.65253,557.044488 1462.29697,550.924605 1472.85056,544.934907 C1492.31489,533.890025 1510.59819,528.109966 1534.29456,533.744561 C1543.53841,535.941191 1553.85731,539.992183 1564.44118,543.403867 L1564.44118,549.047018 C1547.07394,543.397755 1530.04738,535.811007 1511.33255,537.060287 C1478.35448,539.260584 1458.82958,571.842099 1422.92164,560.305818 C1399.61895,552.818084 1384.9166,532.993404 1357.32131,534.157117 C1333.54924,535.159475 1312.62376,546.311926 1292.50077,555.518949 C1273.90707,564.024932 1253.57968,573.319966 1231.723,574.291153 C1206.85317,575.396802 1186.02611,565.302327 1164.58582,556.598317 C1152.16226,551.552913 1138.1867,546.063782 1123.87046,546.620579 C1110.20531,547.152929 1098.73566,552.186721 1087.75054,558.410506 C1070.01233,568.457309 1050.73727,581.096184 1027.49515,576.999352 C1004.61642,572.964862 988.210661,558.901906 967.50473,551.122632 C952.363282,545.432419 937.532234,545.291844 922.489205,551.620144 C911.004417,556.449797 900.253989,562.864275 888.027269,566.45626 C833.34393,582.514153 780.561599,545.470924 726.082668,556.838516 C700.651849,562.145511 674.545721,578.986343 647.281273,576.996296 C635.008372,576.100897 625.046056,572.06274 615.922577,565.4374 C605.199403,557.650181 594.427777,548.871606 579.028167,548.415044 C552.333794,547.623548 528.726006,561.00319 504.734381,568.556322 C476.968751,577.297615 452.06334,575.709122 423.698108,569.42055 C407.118979,565.744831 390.172671,561.493367 372.804673,561.635164 C357.381594,561.76107 342.306011,563.925918 327.237999,566.417144 C301.065249,570.745007 271.430406,576.705979 245.335635,568.832582 C230.944445,564.49005 218.19686,555.649133 203.196228,552.821751 C189.976229,550.330525 177.163536,552.40675 164.724836,556.403957 C143.796327,563.129533 120.519379,576.048946 96.8994765,573.584002 Z M85.6448382,623.631617 C72.6519616,622.275978 62.974305,617.08262 51.7507066,612.05673 C51.2654232,611.839755 50.7808969,611.646004 50.2963705,611.441253 L50.2963705,605.203355 C53.8674811,606.507654 57.4522189,608.051543 61.1331049,609.823409 C74.9511905,616.475088 88.2158561,620.02921 104.215067,616.483645 C116.542477,613.751585 127.890993,609.168815 139.52341,604.990047 C160.75172,597.365339 182.514524,591.913444 204.69296,600.601027 C219.390006,606.35791 232.8182,614.166589 249.414741,615.98674 C265.089925,617.706043 280.815833,616.173767 296.256325,613.777255 C324.096148,609.45669 352.41217,603.169896 380.908376,607.313826 C412.405616,611.894151 444.156476,624.805731 476.534191,617.19508 C501.729561,611.272562 524.193413,598.159898 550.014125,593.977463 C561.075709,592.185427 571.699706,592.137143 582.410767,595.241422 C593.358034,598.413545 601.143766,605.44539 609.731996,611.396635 C637.97761,630.969062 667.304324,614.724614 696.420572,605.661144 C722.089111,597.670939 747.13988,598.570012 773.585933,603.620961 C800.901863,608.838156 830.868303,618.397309 859.334225,614.29433 C875.187321,612.010279 887.709299,605.472894 901.548583,599.304674 C911.587363,594.827641 922.867741,590.399504 934.678071,590.807173 C957.723355,591.603566 974.916469,604.047578 993.843279,613.134274 C1005.34321,618.655235 1019.01594,624.017895 1032.8098,621.469806 C1045.13493,619.191868 1055.34027,613.557835 1065.47747,607.703159 C1084.34371,596.808537 1103.95189,587.331285 1128.00408,592.305833 C1153.12374,597.500414 1173.67069,611.840977 1198.76007,616.862588 C1224.3794,621.988103 1247.97734,613.899495 1270.12171,603.976068 C1289.33621,595.36244 1308.68698,584.526492 1330.33925,580.308608 C1352.30192,576.029603 1370.94104,580.388064 1388.78524,591.270462 C1399.62652,597.88058 1412.4589,607.62676 1427.0174,607.348053 C1440.40244,607.092572 1451.0393,600.972636 1461.60046,594.982885 C1481.0648,583.937908 1499.34052,578.157187 1523.04446,583.791831 C1535.53616,586.762869 1550.00381,593.125451 1564.44118,596.711356 L1564.44118,602.358224 C1543.04631,597.110469 1522.80977,585.591201 1500.08246,587.107586 C1467.09681,589.308513 1447.57191,621.890311 1411.67154,610.35393 C1388.36885,602.86613 1373.65893,583.041279 1346.06365,584.20439 C1322.29157,585.206757 1301.36609,596.359917 1281.24311,605.567019 C1262.65698,614.072465 1242.32201,623.367579 1220.46533,624.339386 C1195.5955,625.445045 1174.77601,615.350482 1153.33572,606.646396 C1140.90459,601.600948 1126.92904,596.111159 1112.62037,596.668572 C1098.94764,597.200927 1087.47799,602.234762 1076.49287,608.458601 C1058.75467,618.50488 1039.4796,631.144476 1016.24505,627.046998 C993.358753,623.013084 976.952994,608.950006 956.247064,601.170053 C941.105616,595.480401 926.274567,595.339825 911.231539,601.667569 C899.74675,606.497875 889.003893,612.912409 876.769603,616.504426 C822.093834,632.562458 769.30696,595.518907 714.82803,606.886598 C689.397211,612.193028 663.291083,629.034006 636.026635,627.044553 C623.753734,626.148535 613.791418,622.110954 604.667939,615.484946 C593.944765,607.69827 583.173139,598.919618 567.773529,598.463053 C541.079156,597.67155 517.471367,611.051308 493.479743,618.604505 C465.714112,627.345874 440.807944,625.757368 412.44347,619.46813 C395.864341,615.792379 378.917275,611.541489 361.550034,611.683288 C346.126955,611.809195 331.051372,613.974062 315.98336,616.465309 C289.81061,620.793209 260.175768,626.754233 234.080996,618.880767 C219.689807,614.538198 206.942222,605.697204 191.941589,602.869798 C178.721591,600.37855 165.908897,602.454793 153.470198,606.452035 C132.541688,613.177058 109.26474,626.097194 85.6448382,623.631617 Z M142.215559,654.712467 C121.28705,661.437349 98.0101018,674.354769 74.3901998,671.891689 C65.2894324,670.94435 57.8148566,668.107835 50.2963705,664.768925 L50.2963705,658.282406 C63.9637986,664.804374 77.1224741,668.253297 92.9604288,664.743255 C105.287082,662.011864 116.636354,657.428579 128.268772,653.25051 C149.496325,645.625962 171.259885,640.174181 193.438321,648.861582 C208.134611,654.618344 221.563561,662.426859 238.160102,664.246972 C253.835287,665.965628 269.561195,664.433995 285.001686,662.037534 C312.84151,657.716447 341.157532,651.430397 369.653737,655.573629 C401.150978,660.153858 432.901837,673.065166 465.279553,665.454676 C490.474922,659.532893 512.938775,646.420504 538.759486,642.238157 C549.821071,640.446159 560.445068,640.397875 571.156129,643.501479 C582.103395,646.674146 589.889128,653.705843 598.477357,659.656964 C626.722972,679.225923 656.049686,662.984872 685.165933,653.920981 C710.833716,645.930944 735.885242,646.83061 762.331295,651.881453 C789.647225,657.098538 819.610636,666.65749 848.084129,662.554597 C863.929655,660.270594 876.451632,653.733347 890.290916,647.565256 C900.337267,643.088317 911.610075,638.660273 923.420404,639.067934 C946.473259,639.863698 963.658803,652.307449 982.585613,661.393955 C994.085543,666.915411 1007.75827,672.276736 1021.55213,669.729312 C1033.88484,667.452032 1044.09017,661.818118 1054.22737,655.962954 C1073.09362,645.069171 1092.69422,635.592118 1116.74641,640.566563 C1141.86608,645.761034 1162.41302,660.101296 1187.50997,665.122191 C1213.12173,670.247598 1236.72725,662.159771 1258.86405,652.236552 C1278.08611,643.623105 1297.42931,632.786773 1319.08158,628.568977 C1341.05183,624.290063 1359.68338,628.648432 1377.53514,639.531213 C1388.37642,646.141192 1401.20123,655.886556 1415.75973,655.608466 C1429.14477,655.352379 1439.78921,649.233183 1450.3428,643.243558 C1469.80713,632.198812 1488.09043,626.418213 1511.78679,632.052739 C1527.54147,635.798699 1546.43043,644.93471 1564.44118,647.100143 L1564.44118,652.682107 C1538.73857,649.758192 1515.49645,633.58865 1488.82479,635.368424 C1455.84671,637.569305 1436.31425,670.150419 1400.41387,658.613669 C1377.11118,651.126027 1362.40884,631.301591 1334.81355,632.465289 C1311.04148,633.467635 1290.10842,644.619949 1269.98544,653.82747 C1251.39931,662.332737 1231.07192,671.628879 1209.21524,672.600665 C1184.34541,673.706912 1163.51835,663.610116 1142.07806,654.906213 C1129.64693,649.860871 1115.67894,644.371808 1101.3627,644.92921 C1087.69755,645.460942 1076.2279,650.495282 1065.23521,656.71838 C1047.50457,666.765059 1028.22951,679.403167 1004.98739,675.30822 C982.101086,671.274391 965.695327,657.210385 944.996968,649.430596 C929.85552,643.740452 915.016901,643.59988 899.973872,649.928102 C888.496654,654.758306 877.746226,661.172705 865.511936,664.764647 C810.836167,680.821119 758.052322,643.778957 703.573392,655.147021 C678.142572,660.453339 652.036445,677.294575 624.771996,675.302108 C612.499095,674.409776 602.53678,670.369835 593.4133,663.745188 C582.690127,655.958676 571.9185,647.180208 556.518891,646.723652 C529.824518,645.932166 506.216729,659.311643 482.225104,666.864682 C454.459474,675.607701 429.553306,674.018617 401.188831,667.728289 C384.609703,664.052615 367.662637,659.801203 350.295396,659.94361 C334.872317,660.069514 319.796734,662.233725 304.727965,664.725531 C278.555972,669.05334 248.92113,675.01485 222.826358,667.140327 C208.435169,662.797849 195.687583,653.957041 180.686194,651.130305 C167.466952,648.638499 154.654259,650.715309 142.215559,654.712467 Z M130.960921,703.867136 C110.032412,710.589648 86.7554634,723.509095 63.1355614,721.046211 C58.5068207,720.563412 54.3035548,719.585592 50.2963705,718.308315 L50.2963705,712.050267 C60.1678376,715.332075 70.2338723,716.438234 81.7057905,713.895902 C94.0324433,711.164117 105.381716,706.580586 117.014133,702.406517 C138.241686,694.779521 160.00449,689.328174 182.183683,698.01855 C196.879972,703.775465 210.308923,711.579691 226.905464,713.400881 C242.580648,715.118177 258.306556,713.590333 273.747048,711.188563 C301.586114,706.873932 329.902894,700.585327 358.398342,704.728839 C389.896339,709.306259 421.646442,722.219595 454.024914,714.610933 C479.220284,708.689011 501.684136,695.574 527.504848,691.393819 C538.566433,689.603186 549.19043,689.554295 559.90149,692.658874 C570.848757,695.830677 578.63449,702.858759 587.222719,708.811238 C615.468333,728.379861 644.795047,712.135826 673.911295,703.078768 C699.579078,695.08509 724.630603,695.983462 751.076657,701.037569 C778.392586,706.250572 808.35297,715.808763 836.826463,711.70803 C852.671988,709.422376 865.193966,702.889316 879.033249,696.722938 C889.0796,692.2433 900.359979,687.818665 912.162738,688.222015 C935.215592,689.022605 952.408707,701.465365 971.335517,710.546869 C982.835447,716.071552 996.500604,721.431228 1010.29446,718.882784 C1022.62717,716.603241 1032.83251,710.974665 1042.96971,705.119967 C1061.83595,694.223386 1081.43656,684.750754 1105.49632,689.719302 C1130.61598,694.913971 1151.15535,709.257368 1176.2523,714.274807 C1201.86406,719.402251 1225.46958,711.31079 1247.61395,701.392029 C1266.82845,692.781101 1286.17922,681.945633 1307.83149,677.722673 C1329.79416,673.44471 1348.42571,677.802121 1366.27748,688.68648 C1377.11876,695.298988 1389.95113,705.04052 1404.50206,704.765508 C1417.8871,704.50883 1428.53154,698.385232 1439.08513,692.396084 C1458.55703,681.35283 1476.83276,675.57758 1500.5367,681.206157 C1519.61492,685.746908 1543.28858,698.189668 1564.44118,696.576265 L1564.44118,702.180396 C1534.09015,703.928249 1508.07714,682.489545 1477.56712,684.524633 C1444.58905,686.724728 1425.06415,719.304469 1389.15621,707.766193 C1365.85352,700.279758 1351.15117,680.460569 1323.55588,681.62173 C1299.78381,682.623996 1278.85833,693.777255 1258.73534,702.980986 C1240.14164,711.48802 1219.81425,720.783422 1197.95757,721.755131 C1173.08774,722.855178 1152.26825,712.765298 1130.82796,704.0627 C1118.39683,699.014704 1104.42127,693.526689 1090.10504,694.082824 C1076.43988,694.614514 1064.97023,699.650287 1053.98511,705.871667 C1036.2469,715.918767 1016.97184,728.557091 993.729719,724.46247 C970.850991,720.428962 954.445232,706.366688 933.739301,698.586907 C918.597853,692.897217 903.766805,692.756656 888.723776,699.081929 C877.238988,703.909915 866.48856,710.326859 854.26184,713.920348 C799.580772,729.97493 746.797684,692.933885 692.318753,704.301043 C666.887934,709.605717 640.781806,726.448667 613.517358,724.456358 C601.2437,723.564098 591.282141,719.524479 582.157905,712.899748 C571.435488,705.113856 560.663862,696.337921 545.264252,695.879568 C518.569879,695.08509 494.96209,708.46289 470.970466,716.016549 C443.204835,724.755816 418.298668,723.17297 389.934193,716.884365 C373.355064,713.205317 356.407998,708.957911 339.040757,709.098473 C323.617678,709.2207 308.542096,711.390238 293.473326,713.877568 C267.300576,718.204422 237.666491,724.169124 211.57172,716.291561 C197.18053,711.952485 184.432945,703.109325 169.431555,700.28587 C156.212314,697.792429 143.398864,699.870296 130.960921,703.867136 Z M119.706283,753.023514 C98.7777732,759.746573 75.500825,772.667068 51.8809231,770.203984 C51.3441587,770.142865 50.8217788,770.075635 50.2963705,770.002292 L50.2963705,763.896533 C56.6625924,764.80109 63.2816764,764.642181 70.4511521,763.053095 C82.777805,760.321088 94.1270774,755.737185 105.759495,751.562777 C126.987048,743.935162 148.749851,738.483373 170.929045,747.168342 C185.625334,752.925724 199.054284,760.736696 215.650069,762.558033 C231.325253,764.275469 247.051918,762.741389 262.49241,760.345536 C290.331476,756.024443 318.648255,749.74144 347.143703,753.885288 C378.641701,758.46308 410.391803,771.377463 442.769519,763.762072 C467.965646,757.839669 490.429498,744.729705 516.250209,740.549186 C527.311794,738.758407 537.935034,738.709512 548.646095,741.808231 C559.594119,744.986404 567.379851,752.015056 575.968081,757.968018 C604.213695,777.538229 633.540409,761.292876 662.656656,752.228971 C688.324439,744.240756 713.375965,745.139201 739.822018,750.193718 C767.137191,755.407144 797.101359,764.966111 825.568796,760.865045 C841.421892,758.579205 853.94387,752.045615 867.783153,745.872625 C877.829504,741.398736 889.102312,736.967629 900.912642,737.377124 C923.965496,738.171668 941.15104,750.615437 960.07785,759.70379 C971.57778,765.222809 985.250508,770.589032 999.044367,768.040382 C1011.36951,765.760654 1021.57484,760.125509 1031.71961,754.270336 C1050.57829,743.378982 1070.18646,733.89947 1094.23865,738.874533 C1119.35831,744.069623 1139.90526,758.408073 1165.00221,763.432031 C1190.61397,768.559891 1214.21192,760.467773 1236.35628,750.548207 C1255.57078,741.930468 1274.92155,731.094121 1296.57382,726.87693 C1318.54406,722.59862 1337.17562,726.956384 1355.01981,737.841627 C1365.86109,744.448559 1378.69347,754.196994 1393.25197,753.915848 C1406.63701,753.659149 1417.27388,747.541166 1427.83504,741.551532 C1447.29937,730.507381 1465.57509,724.725551 1489.27903,730.360696 C1510.32564,735.366319 1536.95945,749.985914 1559.6262,744.766377 C1561.31447,744.381329 1562.91189,743.886267 1564.44118,743.317863 L1564.44118,749.344168 C1562.00341,750.132599 1559.39151,750.725451 1556.51463,751.055492 C1524.71759,754.67372 1497.93237,731.570847 1466.31703,733.679442 C1433.33895,735.879716 1413.80648,768.462101 1377.90611,756.922888 C1354.60342,749.435846 1339.90108,729.608936 1312.29822,730.776304 C1288.52614,731.77865 1267.60066,742.926703 1247.47768,752.137293 C1228.89155,760.645018 1208.55658,769.935062 1186.6999,770.906849 C1161.83008,772.013098 1141.01058,761.922399 1119.57029,753.212982 C1107.13916,748.170689 1093.17118,742.682229 1078.85494,743.238409 C1065.18978,743.770142 1053.71257,748.806323 1042.72744,755.028208 C1024.98924,765.076124 1005.71417,777.715474 982.479623,773.614408 C959.593324,769.580573 943.187565,755.517158 922.489205,747.742858 C907.340186,742.052706 892.509138,741.912133 877.466109,748.237919 C865.988892,753.066298 855.238464,759.483762 843.004174,763.07143 C788.326133,779.133428 735.543045,742.089377 681.064115,753.457457 C655.633296,758.762561 629.527168,775.600766 602.262719,773.614408 C589.989062,772.715963 580.027503,768.682128 570.903266,762.05686 C560.180093,754.270336 549.409224,745.487577 534.009614,745.035299 C507.315241,744.240756 483.707452,757.619641 459.715828,765.173914 C431.950197,773.91389 407.044029,772.324803 378.679554,766.035688 C362.100426,762.362453 345.15336,758.108591 327.785362,758.255276 C312.36304,758.377513 297.287457,760.541116 282.218688,763.034759 C256.045938,767.361964 226.411096,773.321038 200.317081,765.448948 C185.925892,761.10952 173.178307,752.265642 158.176917,749.441958 C144.957676,746.948315 132.144225,749.026351 119.706283,753.023514 Z M146.922279,798.590871 C133.703037,796.103247 120.889587,798.175249 108.451644,802.172561 C90.3863826,807.979055 70.5715266,818.394071 50.2963705,819.549257 L50.2963705,813.486056 C53.1785452,813.302693 56.1371841,812.88707 59.1965137,812.208627 C71.5231666,809.476519 82.872439,804.892445 94.5048565,800.71177 C115.73241,793.089983 137.495213,787.637991 159.674406,796.323283 C174.370696,802.08088 187.799646,809.892142 204.39543,811.707435 C220.070614,813.431047 235.797279,811.89691 251.237771,809.500967 C279.076838,805.179714 307.393617,798.890364 335.889065,803.034367 C367.387062,807.618441 399.137165,820.527193 431.51488,812.91763 C456.711007,806.995007 479.17486,793.884555 504.995571,789.697768 C516.057156,787.906923 526.680396,787.858026 537.391456,790.962972 C548.33948,794.135152 556.125213,801.170177 564.713442,807.117249 C592.959057,826.6943 622.28577,810.448343 651.402018,801.3841 C677.069801,793.395588 702.121327,794.294066 728.56738,799.342659 C755.882552,804.562392 785.846721,814.121714 814.3187,810.020496 C830.164226,807.734571 842.686203,801.194625 856.525487,795.027518 C866.571837,790.553462 877.844646,786.12219 889.654975,786.531701 C912.70783,787.326274 929.893373,799.770506 948.820184,808.859197 C960.320113,814.378422 973.992841,819.738732 987.7867,817.196099 C1000.11941,814.916287 1010.32475,809.280932 1020.46195,803.425541 C1039.32819,792.533782 1058.92879,783.053917 1082.98098,788.029165 C1108.10065,793.224449 1128.64759,807.563432 1153.74454,812.587577 C1179.3563,817.709516 1202.96182,809.623209 1225.09862,799.697161 C1244.32068,791.085214 1263.66388,780.248464 1285.32373,776.031116 C1307.2864,771.752647 1325.91795,776.110573 1343.76972,786.99622 C1354.61099,793.603399 1367.44337,803.352196 1381.9943,803.07104 C1395.37934,802.814331 1406.02378,796.696121 1416.57737,790.706264 C1436.0417,779.661702 1454.325,773.879657 1478.02137,779.515012 C1499.06798,784.520821 1525.70179,799.14096 1548.36853,793.921228 C1554.62195,792.478773 1559.64891,789.642759 1564.44118,786.50114 L1564.44118,793.108319 C1558.96755,796.469973 1553.06238,799.318211 1545.25697,800.210577 C1513.4675,803.82894 1486.6747,780.719095 1455.05936,782.833881 C1422.08129,785.034237 1402.55639,817.611722 1366.64844,806.078192 C1343.34576,798.590871 1328.64341,778.763224 1301.04812,779.930634 C1277.27605,780.933019 1256.34299,792.081486 1236.22758,801.292419 C1217.63388,809.794348 1197.30649,819.09085 1175.44981,820.062674 C1150.57998,821.168963 1129.75292,811.071777 1108.31263,802.368148 C1095.88907,797.325667 1081.91351,791.837002 1067.59727,792.393203 C1053.93212,792.924956 1042.46247,797.955213 1031.47735,804.183442 C1013.73914,814.231732 994.464079,826.865439 971.221956,822.770333 C948.343228,818.736348 931.937469,804.672409 911.231539,796.891708 C896.090091,791.201344 881.259042,791.060766 866.216013,797.3929 C854.731225,802.221458 843.980797,808.633049 831.754078,812.226963 C777.071495,828.283446 724.28765,791.244129 669.809477,802.612632 C644.378657,807.917934 618.27253,824.756765 591.008081,822.770333 C578.734423,821.871855 568.772865,817.831758 559.648628,811.206243 C548.925454,803.419429 538.154585,794.642456 522.754218,794.184048 C496.060603,793.395588 472.452814,806.774971 448.461189,814.329525 C420.695559,823.069826 395.789391,821.48068 367.424916,815.191331 C350.845787,811.51796 333.898722,807.263939 316.530724,807.404517 C301.108402,807.532872 286.032819,809.696554 270.96405,812.190291 C244.7913,816.517656 215.156457,822.476952 189.062443,814.60457 C174.671253,810.258867 161.923668,801.420773 146.922279,798.590871 Z M135.66764,847.745186 C122.448399,845.257553 109.634949,847.329562 97.197006,851.326889 C82.4908745,856.051558 66.6249081,863.832287 50.2963705,867.187842 L50.2963705,860.8129 C61.7221073,858.044109 72.3620028,853.777849 83.2502182,849.866092 C104.477771,842.244278 126.240575,836.792266 148.419768,845.477589 C163.116057,851.235207 176.544251,859.040385 193.140792,860.861797 C208.815976,862.585415 224.541884,861.051273 239.983133,858.655321 C267.822199,854.334052 296.138978,848.04468 324.634427,852.188698 C356.132424,856.772788 387.882527,869.681587 420.260242,862.071997 C445.456369,856.149352 467.920221,843.038853 493.740933,838.852051 C504.802518,837.061199 515.425758,837.012302 526.136818,840.11726 C537.084085,843.28945 544.870575,850.324501 553.458804,856.271594 C581.704418,875.848716 611.031132,859.6027 640.146623,850.538425 C665.815163,842.549884 690.866688,843.448365 717.312742,848.496977 C744.627914,853.716728 774.592083,863.276084 803.06179,859.168739 C818.91413,856.888918 831.436107,850.348949 845.275391,844.18182 C855.314171,839.701635 866.59455,835.27646 878.397308,835.685972 C901.450163,836.480548 918.643277,848.924825 937.570088,858.013549 C949.070017,863.532793 962.742745,868.893123 976.536604,866.344369 C988.861743,864.07066 999.067079,858.435285 1009.20428,852.579873 C1028.07052,841.681962 1047.67113,832.208176 1071.73089,837.183442 C1096.85055,842.378744 1117.3975,856.717779 1142.48688,861.741942 C1168.10621,866.863899 1191.70415,858.777564 1213.84852,848.85148 C1233.06302,840.239502 1252.41379,829.402712 1274.06606,825.185349 C1296.02873,820.906865 1314.66028,825.264807 1332.51205,836.144381 C1343.35333,842.757696 1356.1857,852.500416 1370.74421,852.22537 C1384.12167,851.968661 1394.76611,845.850429 1405.32727,839.86055 C1424.7916,828.815949 1443.06733,823.033883 1466.77127,828.669258 C1487.81788,833.668972 1514.44412,848.295277 1537.11087,843.075526 C1548.23226,840.514547 1555.48501,833.522281 1564.44118,828.278082 L1564.44118,835.025863 C1555.00049,840.722359 1547.22535,847.855204 1533.9993,849.358786 C1502.20983,852.983273 1475.41704,829.873345 1443.80926,831.982027 C1410.82362,834.18239 1391.29872,866.766105 1355.39835,855.232534 C1332.08809,847.745186 1317.38574,827.917467 1289.79045,829.07877 C1266.01838,830.081158 1245.0929,841.235778 1224.96991,850.440631 C1206.37622,858.948703 1186.04882,868.245238 1164.19214,869.217066 C1139.32231,870.323359 1118.50282,860.226136 1097.06253,851.522477 C1084.6314,846.479977 1070.65585,840.985181 1056.34718,841.547496 C1042.67445,842.07925 1031.2048,847.109525 1020.21968,853.337776 C1002.48148,863.37999 983.206412,876.019856 959.97186,871.924735 C937.085561,867.890735 920.679802,853.826746 899.973872,846.046017 C884.832424,840.355632 870.001375,840.215053 854.958347,846.541098 C843.473558,851.375786 832.730701,857.7874 820.496411,861.381327 C765.816856,877.437868 713.033011,840.392305 658.554838,851.760849 C633.124019,857.072282 607.017891,873.911174 579.753443,871.918623 C567.479785,871.026253 557.518226,866.986142 548.39399,860.360603 C537.670816,852.573761 526.899947,843.796756 511.49958,843.338347 C484.805964,842.549884 461.198175,855.929315 437.206551,863.483897 C409.44092,872.224229 384.534752,870.635078 356.170278,864.345706 C339.591149,860.666209 322.644083,856.418285 305.276085,856.558864 C289.853763,856.687218 274.778181,858.850909 259.709411,861.344654 C233.536661,865.672036 203.901819,871.631353 177.807804,863.758942 C163.416615,859.413224 150.66903,850.575098 135.66764,847.745186 Z M124.413002,896.900638 C111.193761,894.407024 98.3803102,896.485036 85.9416106,900.482152 C74.6400337,904.112561 62.6525492,909.552063 50.2963705,913.396384 L50.2963705,906.746747 C57.6225602,904.38148 64.7541822,901.618947 71.9955798,899.021432 C93.2231329,891.393907 114.985936,885.942182 137.165129,894.63316 C151.861419,900.390475 165.289612,908.195243 181.886154,910.016559 C197.561338,911.733975 213.287246,910.206025 228.728494,907.8102 C256.567561,903.489158 284.88434,897.200116 313.379788,901.343916 C344.877029,905.921654 376.627888,918.835886 409.005604,911.226696 C434.200973,905.304362 456.665583,892.188441 482.486294,888.00797 C493.547879,886.217213 504.171119,886.168318 514.88218,889.273112 C525.829447,892.445136 533.615936,899.473705 542.204166,905.426598 C570.44978,924.99658 599.776494,908.757529 628.891984,899.69373 C654.560524,891.699497 679.61205,892.597931 706.058103,897.652389 C733.373276,902.865754 763.337444,912.424608 791.807152,908.323591 C807.656463,906.037778 820.178441,899.504264 834.017724,893.337459 C844.064075,888.85751 855.336883,884.432567 867.147212,884.835946 C890.200067,885.636592 907.385611,898.080215 926.312421,907.162349 C937.812351,912.687416 951.485078,918.047464 965.278938,915.498843 C977.611647,913.219142 987.816983,907.590175 997.954183,901.735071 C1016.82043,890.837733 1036.42103,881.364444 1060.47322,886.339449 C1085.59288,891.528366 1106.13983,905.872759 1131.23678,910.890547 C1156.84854,916.018346 1180.44649,907.932436 1202.59085,898.006874 C1221.81292,889.395348 1241.15612,878.559128 1262.80839,874.341986 C1284.77863,870.057615 1303.41019,874.42144 1321.26195,885.300443 C1332.10323,891.91341 1344.92804,901.655618 1359.48654,901.380587 C1372.87158,901.123891 1383.51602,895.00598 1394.06961,889.016417 C1413.53394,877.966283 1431.81724,872.190633 1455.5136,877.825712 C1476.56022,882.825164 1503.19402,897.4507 1525.86077,892.225111 C1539.3518,889.120317 1547.14208,879.500345 1559.19467,874.378657 C1560.89051,873.663577 1562.64692,873.156297 1564.44118,872.820148 L1564.44118,878.889165 C1548.66379,883.974182 1540.75996,896.460588 1522.7492,898.514153 C1490.95216,902.13845 1464.16694,879.029737 1432.5516,881.138307 C1399.57352,883.338555 1380.04105,915.920557 1344.14068,904.38148 C1320.83799,896.894526 1306.13565,877.073961 1278.54036,878.235203 C1254.76071,879.237538 1233.83523,890.391572 1213.71225,899.595941 C1195.12612,908.103566 1174.79873,917.399613 1152.94205,918.371389 C1128.07222,919.477625 1107.24515,909.380932 1085.80486,900.67773 C1073.37374,895.629384 1059.40575,890.140988 1045.08951,890.697162 C1031.42435,891.228888 1019.95471,896.265011 1008.96202,902.486822 C991.23138,912.534621 971.956316,925.173822 948.714193,921.078916 C925.827895,917.045129 909.422136,902.981878 888.723776,895.201558 C873.582328,889.511472 858.743709,889.370901 843.70068,895.696613 C832.223462,900.531047 821.473034,906.942324 809.238744,910.536062 C754.562218,926.591759 701.778373,889.548143 647.3002,900.91609 C621.869381,906.221132 595.763253,923.065251 568.498804,921.072804 C556.225147,920.180482 546.263588,916.140582 537.139351,909.515392 C526.416178,901.728959 515.645309,892.952415 500.244942,892.494031 C473.551326,891.699497 449.943537,905.084337 425.951912,912.632409 C398.186282,921.378394 373.280114,919.789326 344.915639,913.500285 C328.336511,909.820982 311.389445,905.573281 294.021447,905.713853 C278.599125,905.8422 263.523542,908.005777 248.454773,910.49328 C222.282023,914.820434 192.647181,920.78555 166.553166,912.90744 C152.161977,908.568063 139.414392,899.730401 124.413002,896.900638 Z M113.158364,945.370486 C99.9383652,942.897392 87.1256718,944.958303 74.6869722,948.922527 C66.8512728,951.419867 58.6854898,954.777941 50.2963705,957.87537 L50.2963705,951.256207 C53.7751182,949.995414 57.244781,948.716436 60.7409414,947.473828 C81.9684946,939.90907 103.731298,934.502208 125.910491,943.121667 C140.606781,948.825543 154.034974,956.572146 170.631515,958.378475 C186.306699,960.081758 202.032607,958.56032 217.473856,956.18421 C245.312923,951.898726 273.628945,945.667499 302.12515,949.7772 C333.62239,954.317267 365.37325,967.125226 397.750965,959.572591 C422.946335,953.698993 445.410944,940.697066 471.231656,936.550996 C482.293241,934.774976 492.916481,934.726483 503.627541,937.805728 C514.574808,940.951649 522.360541,947.922379 530.94877,953.826285 C559.195142,973.235223 588.521855,957.123743 617.637346,948.134532 C643.305886,940.212145 668.357412,941.103186 694.803465,946.116051 C722.118637,951.286514 752.082806,960.766708 780.552514,956.699438 C796.401067,954.432435 808.920774,947.952687 822.760057,941.830567 C832.806408,937.393546 844.086787,932.998955 855.889546,933.405075 C878.942401,934.193071 896.135515,946.534295 915.062325,955.547752 C926.562255,961.021291 940.227412,966.343292 954.021271,963.815644 C966.35398,961.554703 976.559316,955.965996 986.696516,950.159074 C1005.56276,939.357473 1025.16336,929.956079 1049.22313,934.890144 C1074.34279,940.042423 1094.88216,954.268775 1119.97911,959.24527 C1145.59087,964.330872 1169.19639,956.30544 1191.33319,946.467618 C1210.55526,937.920896 1229.89846,927.173849 1251.5583,922.99141 C1273.52097,918.748357 1292.15252,923.07021 1310.00429,933.86575 C1320.84556,940.418236 1333.67794,950.086336 1348.22887,949.807507 C1361.61391,949.558985 1372.25835,943.485358 1382.81194,937.545083 C1402.28384,926.591944 1420.55957,920.857761 1444.26351,926.446468 C1465.31012,931.41084 1491.93636,945.90996 1514.6031,940.733435 C1528.09413,937.65419 1535.88441,928.10732 1547.94457,923.033841 C1553.10024,920.863822 1558.86913,920.57287 1564.44118,921.409358 L1564.44118,926.864712 C1560.70881,926.2525 1557.03701,926.29493 1553.46363,927.410247 C1537.49697,932.398866 1529.61585,944.921934 1511.49154,946.970723 C1479.70207,950.559134 1452.90927,927.646646 1421.29393,929.737865 C1388.31586,931.920007 1368.79096,964.233888 1332.88301,952.789767 C1309.58033,945.364424 1294.87798,925.700903 1267.28269,926.85865 C1243.51062,927.852737 1222.58514,938.914983 1202.46215,948.043609 C1183.86845,956.481224 1163.54106,965.694711 1141.68438,966.65849 C1116.81455,967.755622 1095.99506,957.748078 1074.55477,949.116496 C1062.12364,944.109693 1048.14808,938.666462 1033.83184,939.218058 C1020.16669,939.745409 1008.69704,944.740089 997.711919,950.910701 C979.973713,960.875815 960.69865,973.411006 937.456527,969.343737 C914.577799,965.343144 898.17204,951.395621 877.466109,943.685387 C862.324661,938.042127 847.493613,937.902712 832.450584,944.176369 C820.965796,948.964958 810.215368,955.329538 797.987134,958.887641 C743.30758,974.817275 690.523735,938.078496 636.045561,949.352894 C610.614742,954.61428 584.508615,971.319787 557.243409,969.343737 C544.970508,968.452696 535.008949,964.452102 525.884713,957.881431 C515.161539,950.159074 504.39067,941.448692 488.990303,941.000141 C462.296687,940.212145 438.688899,953.480779 414.697274,960.972799 C386.931644,969.64075 362.025476,968.064759 333.660244,961.827471 C317.081872,958.184507 300.134807,953.965699 282.766809,954.111175 C267.344487,954.232406 252.268904,956.378178 237.200135,958.851272 C211.027385,963.142817 181.392542,969.052784 155.298528,961.245566 C140.907338,956.941898 128.159753,948.170901 113.158364,945.370486 Z M101.903725,995.41641 C88.6837268,992.949791 75.8710334,995.010358 63.4323338,998.973918 C59.147304,1000.33753 54.7615836,1001.96174 50.2963705,1003.65868 L50.2963705,997.234557 C71.2672761,989.82864 92.7590476,984.665103 114.655853,993.167969 C129.352142,998.87695 142.780335,1006.62225 159.376877,1008.42828 C175.052061,1010.13128 190.777969,1008.6101 206.219218,1006.23438 C234.058284,1001.94962 262.374306,995.719435 290.870512,999.828447 C322.367752,1004.36775 354.118611,1017.16751 386.496327,1009.6222 C411.691697,1003.74958 434.156306,990.749834 459.977018,986.604459 C471.038602,984.822676 481.661842,984.774192 492.372903,987.85292 C503.32017,990.998314 511.105902,997.973937 519.694132,1003.87685 C547.940503,1023.28254 577.267217,1007.17376 606.382708,998.186054 C632.051247,990.264995 657.102773,991.155887 683.548827,996.161851 C710.863999,1001.33751 740.827411,1010.81611 769.297118,1006.74953 C785.146429,1004.4829 797.669164,997.998179 811.509961,991.883145 C821.556312,987.446867 832.82912,983.053013 844.63945,983.459066 C867.692305,984.246929 884.877848,996.586085 903.804658,1005.59803 C915.304588,1011.07065 928.977316,1016.39176 942.771175,1013.86454 C955.096314,1011.60398 965.30165,1006.01621 975.44642,1000.21026 C994.305094,989.410466 1013.91327,980.010647 1037.96546,984.943885 C1063.08512,990.095301 1083.63207,1004.31321 1108.72145,1009.29493 C1134.34078,1014.37362 1157.93872,1006.35559 1180.08309,996.513359 C1199.29759,987.97413 1218.64836,977.228883 1240.30063,973.047145 C1262.27087,968.804803 1280.90242,973.125932 1298.74662,983.919663 C1309.5879,990.471051 1322.42027,1000.13753 1336.97878,999.858749 C1350.36382,999.604208 1361.00068,993.537659 1371.56184,987.59838 C1391.02618,976.647076 1409.3019,970.913853 1433.00584,976.501624 C1454.05245,981.465165 1480.68626,995.961854 1503.35301,990.786197 C1516.84404,987.707468 1524.63431,978.162198 1536.68691,973.089569 C1545.18883,969.50782 1555.36388,971.022942 1563.57812,974.301666 C1563.86581,974.416816 1564.15349,974.531965 1564.44118,974.653175 L1564.44118,980.307611 C1556.86289,977.259185 1549.33759,975.234982 1542.20596,977.465242 C1526.23931,982.453024 1518.35818,994.973995 1500.23387,997.02244 C1468.4444,1000.61025 1441.65918,977.69554 1410.04383,979.79247 C1377.06576,981.974246 1357.53329,1014.27665 1321.63292,1002.84051 C1298.33023,995.41641 1283.62788,975.756184 1256.02502,976.913737 C1232.25295,977.907657 1211.32747,988.96199 1191.20448,998.095147 C1172.61836,1006.52529 1152.28339,1015.74329 1130.42671,1016.70691 C1105.55688,1017.80386 1084.73739,1007.79193 1063.2971,999.161793 C1050.86597,994.161889 1036.89799,988.71957 1022.58175,989.271075 C1008.91659,989.798337 997.439373,994.79218 986.454253,1000.96176 C968.716046,1010.9252 949.440983,1023.45829 926.206431,1019.39171 C903.320132,1015.39178 886.914373,1001.4466 866.216013,993.731594 C851.066995,988.089279 836.235946,987.949888 821.192918,994.228555 C809.708129,999.016341 798.963758,1005.37985 786.732496,1008.93736 C732.052184,1024.86433 679.269096,988.131703 624.790923,999.404212 C599.360104,1004.66472 573.253219,1021.36136 545.988771,1019.39171 C533.71587,1018.50081 523.754311,1014.50089 514.630074,1007.93132 C503.906901,1000.2042 493.136032,991.501335 477.735665,991.046798 C451.042049,990.264995 427.43426,1003.53141 403.442636,1011.02217 C375.677005,1019.68867 350.770837,1018.11294 322.405606,1011.8767 C305.827234,1008.23434 288.880168,1004.01624 271.51217,1004.15564 C256.089848,1004.28291 241.013508,1006.42832 225.945496,1008.901 C199.772746,1013.19182 170.137904,1019.1008 144.043889,1011.29489 C129.6527,1006.99194 116.905115,998.222417 101.903725,995.41641 Z M90.6490868,1044.57157 C77.4290884,1042.10485 64.6163951,1044.15944 52.1776954,1048.12317 C51.5531107,1048.32318 50.9254977,1048.52924 50.2963705,1048.74137 L50.2963705,1042.71092 C67.6817812,1037.57747 85.4040891,1035.335 103.401214,1042.32304 C118.097504,1048.03226 131.525697,1055.77789 148.122238,1057.57794 C163.797423,1059.28707 179.523331,1057.76582 194.964579,1055.39001 C222.803646,1051.10506 251.119668,1044.86855 279.615873,1048.97774 C311.113114,1053.5233 342.863973,1066.32359 375.241689,1058.77796 C400.437058,1052.9051 422.900911,1039.9048 448.722379,1035.75319 C459.783964,1033.97739 470.407204,1033.9289 481.118264,1037.00776 C492.065531,1040.15329 499.851264,1047.12921 508.439493,1053.02632 C536.685865,1072.43889 566.011822,1056.32942 595.128069,1047.34133 C620.796609,1039.41994 645.848135,1040.31087 672.293431,1045.31705 C699.609361,1050.49292 729.572772,1059.97193 758.04248,1055.89911 C773.891791,1053.63845 786.414525,1047.15345 800.253809,1041.03816 C810.298646,1036.59563 821.571454,1032.20765 833.381783,1032.61372 C856.434638,1033.40162 873.620182,1045.7413 892.546992,1054.75363 C904.046922,1060.22648 917.719649,1065.54176 931.513508,1063.01443 C943.846218,1060.75983 954.051554,1055.17182 964.188753,1049.36562 C983.054998,1038.56537 1002.6556,1029.16515 1026.70779,1034.0986 C1051.82745,1039.25024 1072.3744,1053.46875 1097.47135,1058.45068 C1123.08311,1063.52959 1146.68863,1055.51122 1168.82542,1045.66857 C1188.04749,1037.12898 1207.39069,1026.38327 1229.04296,1022.20136 C1251.0132,1017.95883 1269.64476,1022.28015 1287.49652,1033.06828 C1298.3378,1039.626 1311.17018,1049.2929 1325.72111,1049.0141 C1339.10615,1048.75955 1349.75059,1042.69274 1360.30418,1036.75321 C1379.76851,1025.80144 1398.05181,1020.06797 1421.74817,1025.65598 C1442.79479,1030.61973 1469.42859,1045.11704 1492.09534,1039.94116 C1505.58637,1036.85624 1513.37665,1027.31663 1525.42924,1022.24378 C1533.93116,1018.66188 1544.10622,1020.17707 1552.32045,1023.45593 C1556.47678,1025.11658 1560.45898,1026.88631 1564.44118,1028.48635 L1564.44118,1034.34103 C1553.15323,1029.45607 1541.60788,1023.28623 1530.9483,1026.61964 C1514.98921,1031.60764 1507.10809,1044.12914 1488.98377,1046.17161 C1457.1943,1049.76563 1430.40151,1026.84995 1398.78617,1028.94091 C1365.80809,1031.12278 1346.27563,1063.43262 1310.37525,1051.99599 C1287.07256,1044.57157 1272.37022,1024.91051 1244.77493,1026.06205 C1221.00285,1027.05601 1200.0698,1038.11688 1179.94682,1047.25042 C1161.36069,1055.68092 1141.0333,1064.89932 1119.17662,1065.86298 C1094.30679,1066.95997 1073.47973,1056.94762 1052.03944,1048.31711 C1039.61588,1043.317 1025.64032,1037.86839 1011.32408,1038.42598 C997.658924,1038.95326 986.189277,1043.94126 975.196586,1050.11716 C957.46595,1060.07496 938.190887,1072.60859 914.948764,1068.54789 C892.062465,1064.5478 875.664277,1050.60202 854.958347,1042.88669 C839.816899,1037.24413 824.98585,1037.10473 809.942822,1043.38367 C798.457276,1048.17166 787.709119,1054.52938 775.477857,1058.0931 C720.797546,1074.01468 668.014458,1037.28049 613.536285,1048.55348 C588.105466,1053.82027 561.998581,1070.51763 534.734132,1068.54789 C522.461231,1067.65696 512.499673,1063.6508 503.375436,1057.08095 C492.652263,1049.35956 481.880636,1040.65633 466.481027,1040.20177 C439.787411,1039.41994 416.178865,1052.68691 392.187997,1060.178 C364.42161,1068.84486 339.516199,1067.26907 311.150967,1061.03256 C294.572596,1057.39005 277.62553,1053.17177 260.257532,1053.31117 C244.834453,1053.43845 229.75887,1055.58395 214.690858,1058.05674 C188.518108,1062.34774 158.883266,1068.25697 132.789251,1060.45073 C118.398062,1056.14154 105.650476,1047.3777 90.6490868,1044.57157 Z M79.3944484,1093.72635 C69.4699862,1091.87181 59.7756741,1092.56878 50.2963705,1094.70817 L50.2963705,1089.01727 C64.0569185,1086.19303 78.0173337,1085.98697 92.146576,1091.47787 C106.842866,1097.18695 120.271059,1104.92632 136.8676,1106.73238 C152.542784,1108.4354 168.268692,1106.92026 183.709941,1104.5445 C211.549007,1100.25967 239.865029,1094.02332 268.361235,1098.1324 C299.858475,1102.67178 331.609335,1115.47781 363.98705,1107.93237 C389.18242,1102.05966 411.646272,1089.05363 437.466984,1084.90819 C448.528569,1083.13244 459.152566,1083.08395 469.863626,1086.16273 C480.810893,1089.30818 488.596626,1096.27786 497.184855,1102.18087 C525.431226,1121.58689 554.757183,1105.4839 583.873431,1096.49604 C609.541971,1088.56879 634.592739,1089.46575 661.038793,1094.4718 C688.354722,1099.64755 718.318134,1109.12631 746.787842,1105.05359 C762.637152,1102.79299 775.159887,1096.30816 788.999171,1090.19302 C799.044007,1085.75061 810.321358,1081.36274 822.124117,1081.76274 C845.176971,1082.55668 862.370086,1094.89604 881.296896,1103.90208 C892.796826,1109.38086 906.469553,1114.69599 920.263412,1112.16873 C932.588551,1109.91419 942.793887,1104.32632 952.931087,1098.52028 C971.797331,1087.71424 991.397936,1078.32033 1015.4577,1083.25365 C1040.57736,1088.40515 1061.1243,1102.6233 1086.21368,1107.59904 C1111.83301,1112.68388 1135.43096,1104.66572 1157.57533,1094.82332 C1176.78983,1086.28394 1196.1406,1075.53852 1217.79287,1071.35671 C1239.75554,1067.11429 1258.38709,1071.4355 1276.23886,1082.22335 C1287.08013,1088.78091 1299.91251,1098.44149 1314.47101,1098.16876 C1327.84848,1097.91422 1338.49292,1091.84757 1349.05408,1085.90819 C1368.51841,1074.9567 1386.79414,1069.22338 1410.49808,1074.81124 C1431.54469,1079.76881 1458.17093,1094.2718 1480.83767,1089.09606 C1494.3287,1086.01122 1502.11898,1076.47185 1514.17914,1071.39307 C1522.68107,1067.81732 1532.85612,1069.33247 1541.07036,1072.61125 C1549.07261,1075.80518 1556.42378,1079.41123 1564.44118,1081.45971 L1564.44118,1087.56879 C1549.75398,1083.82334 1533.93873,1071.32034 1519.6982,1075.77488 C1503.73154,1080.76274 1495.85042,1093.27787 1477.72611,1095.32635 C1445.93664,1098.92028 1419.14384,1076.00518 1387.53607,1078.09608 C1354.55043,1080.2779 1335.02553,1112.58691 1299.12516,1101.14451 C1275.8149,1093.72029 1261.11255,1074.06579 1233.51726,1075.2173 C1209.74519,1076.21124 1188.81971,1087.27182 1168.69672,1096.39907 C1150.10302,1104.83541 1129.77563,1114.05357 1107.91895,1115.01721 C1083.04912,1116.11417 1062.22963,1106.10208 1040.78934,1097.47179 C1028.35821,1092.46575 1014.38265,1087.02334 1000.07399,1087.57485 C986.401258,1088.10212 974.931611,1093.09605 963.94649,1099.26573 C946.208284,1109.22934 926.93322,1121.76264 903.698668,1117.70205 C880.812369,1113.70206 864.40661,1099.75664 843.70068,1092.0415 C828.559232,1086.39909 813.728184,1086.2597 798.684398,1092.53241 C787.202638,1097.32634 776.454481,1103.6839 764.223219,1107.24753 C709.542908,1123.1687 656.759819,1086.43546 602.280889,1097.70816 C576.850827,1102.96875 550.743942,1119.67174 523.479494,1117.69599 C511.206593,1116.81114 501.245034,1112.80509 492.120798,1106.23541 C481.397624,1098.51422 470.625998,1089.81121 455.226388,1089.35666 C428.532015,1088.57485 404.924226,1101.84148 380.933359,1109.32631 C353.166971,1117.99902 328.261561,1116.42326 299.896329,1110.18691 C283.317957,1106.53844 266.370891,1102.32633 249.002893,1102.46572 C233.579814,1102.59299 218.504232,1104.73844 203.43622,1107.2051 C177.263469,1111.496 147.628627,1117.41114 121.534613,1109.6051 C107.142666,1105.29602 94.3958381,1096.5324 79.3944484,1093.72635 Z M68.13981,1142.88047 C62.1082142,1141.7532 56.1621675,1141.57745 50.2963705,1142.08654 L50.2963705,1136.51079 C60.3972305,1135.65625 70.5995383,1136.63201 80.8911805,1140.632 C95.5882271,1146.33501 109.01642,1154.08045 125.612962,1155.8865 C141.288146,1157.58953 157.014054,1156.06832 172.455303,1153.69257 C200.294369,1149.40773 228.610391,1143.17744 257.106596,1147.28652 C288.603837,1151.82591 320.354696,1164.63194 352.732412,1157.0865 C377.927782,1151.21379 400.391634,1138.20776 426.212345,1134.06231 C437.27393,1132.28656 447.897927,1132.23808 458.608988,1135.31686 C469.556255,1138.4623 477.341987,1145.43198 485.930217,1151.335 C514.176588,1170.74101 543.502545,1154.63196 572.618792,1145.6441 C598.287332,1137.72291 623.338101,1138.61382 649.784154,1143.62593 C677.100084,1148.79561 707.063495,1158.27438 735.533203,1154.20772 C751.382514,1151.94106 763.905249,1145.46229 777.744532,1139.34109 C787.788612,1134.90474 799.065205,1130.51081 810.874021,1130.91687 C833.926875,1131.70474 851.112419,1144.04411 870.039229,1153.05621 C881.539159,1158.52892 895.211887,1163.85012 909.005746,1161.32285 C921.330885,1159.06225 931.543791,1153.47439 941.680991,1147.6744 C960.547235,1136.86837 980.14784,1127.46839 1004.20003,1132.40171 C1029.31969,1137.55322 1049.86664,1151.77742 1074.96359,1156.75317 C1100.57535,1161.838 1124.17329,1153.81378 1146.31766,1143.97744 C1165.53973,1135.43201 1184.88293,1124.69264 1206.5352,1120.50477 C1228.50544,1116.26236 1247.13699,1120.58356 1264.98876,1131.37747 C1275.83004,1137.92897 1288.65484,1147.59561 1303.21335,1147.32289 C1316.59839,1147.06834 1327.24283,1140.99563 1337.79641,1135.05625 C1357.26075,1124.10476 1375.54404,1118.3775 1399.24041,1123.95931 C1420.28702,1128.92293 1446.92083,1143.42593 1469.58758,1138.24412 C1483.07861,1135.16534 1490.86888,1125.61991 1502.92148,1120.5472 C1511.4234,1116.97145 1521.59845,1118.4866 1529.81269,1121.76538 C1541.38833,1126.38355 1551.58609,1131.86838 1564.44118,1132.23202 L1564.44118,1137.91079 C1562.52579,1137.90473 1560.59525,1137.82594 1558.66472,1137.67443 C1542.50122,1136.38958 1524.47533,1119.91689 1508.44053,1124.92294 C1492.48145,1129.91081 1484.59275,1142.43199 1466.47601,1144.48047 C1434.67897,1148.0744 1407.89375,1125.15931 1376.2784,1127.25021 C1343.30033,1129.43202 1323.76786,1161.74103 1287.86749,1150.29864 C1264.5648,1142.87441 1249.86245,1123.21992 1222.26717,1124.37143 C1198.48752,1125.36537 1177.56204,1136.42595 1157.43906,1145.5532 C1138.85293,1153.98954 1118.52553,1163.2077 1096.66885,1164.17133 C1071.79902,1165.26224 1050.97196,1155.2562 1029.53167,1146.62592 C1017.10054,1141.61987 1003.13256,1136.17746 988.816319,1136.72897 C975.151162,1137.25625 963.681515,1142.25017 952.688824,1148.41985 C934.958188,1158.38347 915.683124,1170.91677 892.441002,1166.85617 C869.554703,1162.85012 853.148944,1148.91076 832.450584,1141.19563 C817.309136,1135.55322 802.473545,1135.41383 787.429759,1141.68654 C775.947999,1146.47441 765.199842,1152.83803 752.968581,1156.40165 C698.288269,1172.32283 645.505181,1135.58958 591.026251,1146.86228 C565.596189,1152.12288 539.489304,1168.82587 512.224855,1166.85011 C499.951955,1165.96527 489.989639,1161.95922 480.866159,1155.38953 C470.142986,1147.66834 459.37136,1138.95927 443.97175,1138.51079 C417.277377,1137.72291 393.669588,1150.98955 369.677964,1158.48044 C341.912333,1167.14708 317.006922,1165.57133 288.64169,1159.34104 C272.062562,1155.69256 255.116253,1151.48045 237.748255,1151.61985 C222.325176,1151.74106 207.249593,1153.89257 192.181581,1156.35923 C166.008831,1160.65013 136.373989,1166.56526 110.279217,1158.75316 C95.8880278,1154.45014 83.1404427,1145.68047 68.13981,1142.88047 Z M99.0245788,1207.01768 C84.6333894,1202.71473 71.8865614,1193.94521 56.8851717,1191.14526 C54.6767915,1190.72709 52.4812815,1190.45437 50.2963705,1190.28467 L50.2963705,1184.64236 C56.7057455,1185.06053 63.1529741,1186.37566 69.6365422,1188.89076 C84.3335888,1194.59974 97.761782,1202.34504 114.358323,1204.15107 C130.033507,1205.85407 145.759415,1204.33289 161.200664,1201.95717 C189.039731,1197.67241 217.355753,1191.44222 245.851958,1195.55124 C277.349198,1200.09054 309.100058,1212.89636 341.477774,1205.34499 C366.673143,1199.47237 389.136996,1186.47262 414.957707,1182.32725 C426.019292,1180.54547 436.643289,1180.50304 447.354349,1183.57571 C458.301616,1186.7211 466.087349,1193.69673 474.675578,1199.59964 C502.921193,1219.00533 532.247906,1202.89655 561.364154,1193.90884 C587.032694,1185.98778 612.083463,1186.87868 638.529516,1191.88464 C665.845445,1197.0603 695.808857,1206.5389 724.278565,1202.47232 C740.127876,1200.20569 752.65061,1193.72097 766.489894,1187.60594 C776.533973,1183.16966 787.80981,1178.7758 799.617868,1179.18186 C822.669209,1179.96972 839.862323,1192.30887 858.789133,1201.32082 C870.289063,1206.79344 883.95422,1212.11455 897.748079,1209.58733 C910.080789,1207.32677 920.286125,1201.739 930.423324,1195.93305 C949.289568,1185.13326 968.890173,1175.73344 992.949934,1180.66668 C1018.0696,1185.81809 1038.60897,1200.036 1063.70592,1205.01772 C1089.31768,1210.10247 1112.9232,1202.07838 1135.06,1192.24221 C1154.28206,1183.69692 1173.62526,1172.95167 1195.2851,1168.76994 C1217.24778,1164.52759 1235.87933,1168.84872 1253.73109,1179.64245 C1264.57237,1186.19384 1277.40475,1195.86032 1291.95568,1195.58154 C1305.34072,1195.327 1315.98516,1189.26045 1326.53875,1183.32117 C1346.01065,1172.36987 1364.28638,1166.63664 1387.99031,1172.22441 C1409.02936,1177.18795 1435.66316,1191.68464 1458.32991,1186.50899 C1471.82094,1183.43026 1479.61122,1173.88499 1491.67138,1168.81236 C1500.1733,1165.23061 1510.34836,1166.74573 1518.56259,1170.02446 C1531.58424,1175.22436 1542.85705,1181.5212 1558.1272,1180.38789 C1560.25457,1180.23032 1562.35166,1180.00002 1564.44118,1179.72124 L1564.44118,1185.50295 C1558.83127,1186.16354 1553.1608,1186.39384 1547.40705,1185.9393 C1531.25113,1184.65448 1513.21766,1168.18207 1497.19044,1173.18803 C1481.22378,1178.17581 1473.34266,1190.69678 1455.21834,1192.74523 C1423.42887,1196.33304 1396.63608,1173.41833 1365.02074,1175.51526 C1332.04266,1177.69704 1312.51777,1210.0055 1276.60982,1198.5633 C1253.30713,1191.1392 1238.60479,1171.47897 1211.0095,1172.63653 C1187.23743,1173.63045 1166.31194,1184.68478 1146.18896,1193.81794 C1127.59526,1202.24808 1107.26787,1211.46608 1085.41119,1212.4297 C1060.54136,1213.52665 1039.72187,1203.52078 1018.27401,1194.88458 C1005.85045,1189.88468 991.874891,1184.44236 977.558652,1184.99386 C963.893495,1185.52113 952.423848,1190.51497 941.438728,1196.68455 C923.700521,1206.64799 904.425458,1219.18108 881.183335,1215.1145 C858.304607,1211.11457 841.898848,1197.16939 821.192918,1189.45438 C806.050712,1183.81207 791.218907,1183.67874 776.175121,1189.95134 C764.693361,1194.73913 753.945204,1201.10264 741.713942,1204.66015 C687.033631,1220.58712 634.250543,1183.85449 579.771612,1195.127 C554.340793,1200.38751 528.234666,1217.08415 500.970217,1215.1145 C488.697316,1214.2236 478.735001,1210.22368 469.611521,1203.65411 C458.888347,1195.93305 448.116721,1187.22412 432.717111,1186.77565 C406.022738,1185.98778 382.41495,1199.2542 358.423325,1206.74496 C330.657695,1215.41146 305.751527,1213.83573 277.387052,1207.59949 C260.807923,1203.95713 243.860858,1199.73903 226.493617,1199.88449 C211.070538,1200.0057 195.994955,1202.15111 180.926943,1204.62379 C154.754193,1208.91461 125.11935,1214.82359 99.0245788,1207.01768 Z M169.671547,1253.77953 C143.499554,1258.07053 113.864712,1263.97976 87.7699404,1256.17352 C74.893653,1252.31889 63.3324003,1244.90053 50.2963705,1241.37318 L50.2963705,1235.50637 C52.9854917,1236.16093 55.6806695,1236.99732 58.3819038,1238.04583 C73.0789504,1243.75505 86.5071436,1251.50068 103.103685,1253.30073 C118.778869,1255.00986 134.504777,1253.48861 149.945269,1251.1128 C177.785092,1246.82785 206.101114,1240.59134 234.59732,1244.70053 C266.09456,1249.24609 297.84542,1262.04638 330.223135,1254.50075 C355.418505,1248.62789 377.882357,1235.62759 403.703069,1231.47598 C414.764654,1229.70018 425.388651,1229.65169 436.099711,1232.73055 C447.046978,1235.87608 454.832711,1242.852 463.42094,1248.74911 C491.666554,1268.16168 520.993268,1252.05221 550.109516,1243.06412 C575.777298,1235.14273 600.828824,1236.03366 627.274878,1241.03984 C654.590807,1246.21571 684.554219,1255.69472 713.023926,1251.62796 C728.873237,1249.36124 741.395972,1242.87624 755.235255,1236.76095 C765.279335,1232.32448 776.555171,1227.93044 788.36323,1228.33651 C811.419113,1229.12441 828.604656,1241.46409 847.531466,1250.47642 C859.031396,1255.94927 872.704124,1261.26455 886.497983,1258.73722 C898.823122,1256.48262 909.028458,1250.89461 919.173228,1245.08841 C938.031902,1234.28816 957.640077,1224.88794 981.692267,1229.82139 C1006.81193,1234.97303 1027.35887,1249.19154 1052.44825,1254.17347 C1078.06758,1259.25238 1101.66553,1251.23401 1123.8099,1241.39136 C1143.0244,1232.85177 1162.37517,1222.10606 1184.02744,1217.92415 C1205.99768,1213.68162 1224.62923,1218.00294 1242.47343,1228.79713 C1253.3147,1235.34879 1266.14708,1245.01569 1280.70558,1244.73689 C1294.09062,1244.48234 1304.72749,1238.41553 1315.28865,1232.476 C1334.75298,1221.52423 1353.02871,1215.79076 1376.73265,1221.37877 C1397.77926,1226.34252 1424.4055,1240.83983 1447.07982,1235.66395 C1460.57085,1232.57903 1468.36112,1223.03942 1480.41371,1217.96657 C1488.91564,1214.38467 1499.09069,1215.89986 1507.30493,1219.17872 C1520.32657,1224.37278 1531.59938,1230.67596 1546.8771,1229.5426 C1552.8504,1229.10016 1558.67986,1228.11832 1564.44118,1226.90011 L1564.44118,1232.83358 C1555.18976,1234.68817 1545.77935,1235.8579 1536.14938,1235.09424 C1519.99346,1233.80936 1501.96757,1217.33019 1485.93277,1222.34243 C1469.96611,1227.33043 1462.08499,1239.85193 1443.96068,1241.90046 C1412.17121,1245.48842 1385.38599,1222.57274 1353.77064,1224.6637 C1320.79257,1226.85163 1301.2601,1259.15541 1265.35973,1247.71878 C1242.05704,1240.29436 1227.34712,1220.6333 1199.75183,1221.78484 C1175.97976,1222.7788 1155.05428,1233.83967 1134.93129,1242.97321 C1116.34517,1251.40371 1096.0102,1260.62211 1074.15352,1261.58577 C1049.28369,1262.68276 1028.4642,1252.67041 1007.02391,1244.0399 C994.592781,1239.03979 980.624795,1233.59724 966.308556,1234.14877 C952.635828,1234.67605 941.166182,1239.66405 930.181061,1245.83995 C912.442854,1255.79775 893.167791,1268.33138 869.933239,1264.27068 C847.04694,1260.27059 830.641181,1246.32481 809.942822,1238.60948 C794.796074,1232.96692 779.964268,1232.82752 764.920483,1239.10646 C753.437966,1243.89445 742.690566,1250.25217 730.458547,1253.81589 C675.778992,1269.73747 622.995904,1233.00935 568.516974,1244.28233 C543.086155,1249.54306 516.980027,1266.24042 489.715579,1264.27068 C477.442678,1263.37975 467.480362,1259.37359 458.356883,1252.80374 C447.633709,1245.08235 436.862083,1236.37912 421.462473,1235.92456 C394.7681,1235.14273 371.160311,1248.4097 347.168687,1255.90079 C319.403056,1264.56765 294.496888,1262.99186 266.132414,1256.75535 C249.553285,1253.11284 232.606219,1248.89456 215.238978,1249.03396 C199.815899,1249.16124 184.740316,1251.30674 169.671547,1253.77953 Z" id="path-1"></path>
    </defs>
    <g id="Screens" stroke="none" stroke-width="1" fill="none" fill-rule="evenodd" opacity="0.0558763587">
        <g id="CREATE-ACCOUNT">
            <g id="Wavy-Lines" transform="translate(-164.187303, -184.963592)">
                <mask id="mask-2" fill="white">
                    <use xlink:href="#path-1"></use>
                </mask>
                <use id="Mask" fill="#494A47" transform="translate(807.368775, 664.481357) rotate(-5.000000) translate(-807.368775, -664.481357) " xlink:href="#path-1"></use>
            </g>
        </g>
    </g>
</svg>